<svg width="26" height="26" viewBox="0 0 26 26" fill="none" xmlns="http://www.w3.org/2000/svg">
<path d="M25.5517 21.5174H0.448296C0.200738 21.5174 0 21.3167 0 21.0691V4.93121C0 4.68365 0.200738 4.48291 0.448296 4.48291H25.5517C25.7993 4.48291 26 4.68365 26 4.93121V21.0691C25.9999 21.3167 25.7992 21.5174 25.5517 21.5174Z" fill="#F5F5F5"/>
<path d="M26 5.79332H0V4.93121C0 4.68365 0.200738 4.48291 0.448296 4.48291H25.5517C25.7993 4.48291 26 4.68365 26 4.93121L26 5.79332Z" fill="#FF4B55"/>
<path d="M26 9.72437H0V11.0347H26V9.72437Z" fill="#FF4B55"/>
<path d="M26 7.10352H0V8.41387H26V7.10352Z" fill="#FF4B55"/>
<path d="M26 13.6554H0.448296C0.200738 13.6554 0 13.4546 0 13.2071V12.345H26V13.6554Z" fill="#FF4B55"/>
<path d="M26 17.5867H0V18.897H26V17.5867Z" fill="#FF4B55"/>
<path d="M25.5517 21.5174H0.448296C0.200738 21.5174 0 21.3166 0 21.0691V20.207H26V21.0691C26 21.3167 25.7992 21.5174 25.5517 21.5174Z" fill="#FF4B55"/>
<path d="M26 14.9658H0V16.2762H26V14.9658Z" fill="#FF4B55"/>
<path d="M11.6551 4.48267H0.448296C0.200738 4.48267 0 4.68335 0 4.93091V13.2067C0 13.4543 0.200738 13.655 0.448296 13.655H11.6552C11.9027 13.655 12.1035 13.4543 12.1035 13.2067V4.93091C12.1034 4.68335 11.9027 4.48267 11.6551 4.48267Z" fill="#41479B"/>
<path d="M1.25883 5.51206L1.35806 5.80963L1.67173 5.81202C1.71236 5.81237 1.72917 5.86417 1.69652 5.88829L1.44418 6.07466L1.53884 6.37371C1.55113 6.4124 1.507 6.4445 1.47394 6.42083L1.21877 6.23848L0.963592 6.42088C0.930533 6.4445 0.886506 6.41246 0.898694 6.37376L0.99335 6.07471L0.741018 5.88834C0.708366 5.86417 0.725175 5.81243 0.7658 5.81207L1.07947 5.80968L1.1787 5.51211C1.1915 5.47351 1.24593 5.47351 1.25883 5.51206Z" fill="#F5F5F5"/>
<path d="M1.25883 7.06841L1.35806 7.36599L1.67173 7.36838C1.71236 7.36873 1.72917 7.42053 1.69652 7.44465L1.44418 7.63102L1.53884 7.93007C1.55113 7.96876 1.507 8.00086 1.47394 7.97719L1.21877 7.79484L0.963592 7.97724C0.930533 8.00086 0.886506 7.96881 0.898694 7.93012L0.99335 7.63107L0.741018 7.4447C0.708366 7.42053 0.725175 7.36878 0.7658 7.36843L1.07947 7.36604L1.1787 7.06846C1.1915 7.02992 1.24593 7.02992 1.25883 7.06841Z" fill="#F5F5F5"/>
<path d="M1.25883 8.62505L1.35806 8.92263L1.67173 8.92502C1.71236 8.92538 1.72917 8.97717 1.69652 9.00129L1.44418 9.18766L1.53884 9.48671C1.55113 9.52541 1.507 9.5575 1.47394 9.53384L1.21877 9.35148L0.963592 9.53389C0.930533 9.5575 0.886506 9.52546 0.898694 9.48676L0.99335 9.18771L0.741018 9.00134C0.708366 8.97717 0.725175 8.92543 0.7658 8.92507L1.07947 8.92268L1.1787 8.62511C1.1915 8.58656 1.24593 8.58656 1.25883 8.62505Z" fill="#F5F5F5"/>
<path d="M1.25883 10.1817L1.35806 10.4793L1.67173 10.4817C1.71236 10.4821 1.72917 10.5339 1.69652 10.558L1.44418 10.7443L1.53884 11.0434C1.55113 11.0821 1.507 11.1142 1.47394 11.0905L1.21877 10.9082L0.963592 11.0906C0.930533 11.1142 0.886506 11.0821 0.898694 11.0434L0.99335 10.7444L0.741018 10.558C0.708366 10.5338 0.725175 10.4821 0.7658 10.4817L1.07947 10.4794L1.1787 10.1818C1.1915 10.1432 1.24593 10.1432 1.25883 10.1817Z" fill="#F5F5F5"/>
<path d="M1.25883 11.7384L1.35806 12.036L1.67173 12.0384C1.71236 12.0387 1.72917 12.0905 1.69652 12.1147L1.44418 12.301L1.53884 12.6001C1.55113 12.6388 1.507 12.6709 1.47394 12.6472L1.21877 12.4648L0.963592 12.6472C0.930533 12.6709 0.886506 12.6388 0.898694 12.6001L0.99335 12.3011L0.741018 12.1147C0.708366 12.0905 0.725175 12.0388 0.7658 12.0384L1.07947 12.036L1.1787 11.7385C1.1915 11.6998 1.24593 11.6998 1.25883 11.7384Z" fill="#F5F5F5"/>
<path d="M2.46709 6.27496L2.56631 6.57254L2.87999 6.57493C2.92061 6.57528 2.93742 6.62708 2.90477 6.6512L2.65244 6.83757L2.74709 7.13662C2.75938 7.17531 2.71525 7.20741 2.68219 7.18374L2.42702 7.00134L2.17184 7.18374C2.13879 7.20736 2.09476 7.17531 2.10695 7.13662L2.2016 6.83757L1.94927 6.6512C1.91662 6.62703 1.93343 6.57528 1.97405 6.57493L2.28773 6.57254L2.38695 6.27496C2.3997 6.23647 2.45424 6.23647 2.46709 6.27496Z" fill="#F5F5F5"/>
<path d="M2.46709 7.83164L2.56631 8.12922L2.87999 8.1316C2.92061 8.13196 2.93742 8.18376 2.90477 8.20788L2.65244 8.39424L2.74709 8.69329C2.75938 8.73198 2.71525 8.76408 2.68219 8.74041L2.42702 8.55801L2.17184 8.74041C2.13879 8.76403 2.09476 8.73204 2.10695 8.69329L2.2016 8.39424L1.94927 8.20788C1.91662 8.1837 1.93343 8.13196 1.97405 8.1316L2.28773 8.12922L2.38695 7.83164C2.3997 7.7931 2.45424 7.7931 2.46709 7.83164Z" fill="#F5F5F5"/>
<path d="M2.46709 9.38853L2.56631 9.6861L2.87999 9.68849C2.92061 9.68885 2.93742 9.74064 2.90477 9.76476L2.65244 9.95113L2.74709 10.2502C2.75938 10.2889 2.71525 10.321 2.68219 10.2973L2.42702 10.1149L2.17184 10.2973C2.13879 10.3209 2.09476 10.2889 2.10695 10.2502L2.2016 9.95113L1.94927 9.76476C1.91662 9.74059 1.93343 9.68885 1.97405 9.68849L2.28773 9.6861L2.38695 9.38853C2.3997 9.34998 2.45424 9.34998 2.46709 9.38853Z" fill="#F5F5F5"/>
<path d="M2.46709 10.9451L2.56631 11.2427L2.87999 11.2451C2.92061 11.2454 2.93742 11.2972 2.90477 11.3214L2.65244 11.5077L2.74709 11.8068C2.75938 11.8455 2.71525 11.8776 2.68219 11.8539L2.42702 11.6715L2.17184 11.8539C2.13879 11.8775 2.09476 11.8455 2.10695 11.8068L2.2016 11.5077L1.94927 11.3214C1.91662 11.2972 1.93343 11.2454 1.97405 11.2451L2.28773 11.2427L2.38695 10.9451C2.3997 10.9066 2.45424 10.9066 2.46709 10.9451Z" fill="#F5F5F5"/>
<path d="M3.67531 5.51182L3.77454 5.80939L4.08821 5.81178C4.12884 5.81214 4.14565 5.86393 4.11299 5.88805L3.86066 6.07442L3.95532 6.37347C3.96761 6.41216 3.92348 6.44426 3.89042 6.42059L3.63524 6.23819L3.38007 6.42059C3.34701 6.44421 3.30298 6.41216 3.31517 6.37347L3.40982 6.07442L3.15749 5.88805C3.12484 5.86388 3.14165 5.81214 3.18227 5.81178L3.49595 5.80939L3.59518 5.51182C3.60797 5.47327 3.66246 5.47327 3.67531 5.51182Z" fill="#F5F5F5"/>
<path d="M3.67531 7.06842L3.77454 7.366L4.08821 7.36838C4.12884 7.36874 4.14565 7.42054 4.11299 7.44466L3.86066 7.63102L3.95532 7.93007C3.96761 7.96877 3.92348 8.00086 3.89042 7.9772L3.63524 7.79479L3.38007 7.9772C3.34701 8.00081 3.30298 7.96877 3.31517 7.93007L3.40982 7.63102L3.15749 7.44466C3.12484 7.42049 3.14165 7.36874 3.18227 7.36838L3.49595 7.366L3.59518 7.06842C3.60797 7.02993 3.66246 7.02993 3.67531 7.06842Z" fill="#F5F5F5"/>
<path d="M3.67531 8.62506L3.77454 8.92264L4.08821 8.92503C4.12884 8.92538 4.14565 8.97718 4.11299 9.0013L3.86066 9.18767L3.95532 9.48672C3.96761 9.52542 3.92348 9.55751 3.89042 9.53385L3.63524 9.35144L3.38007 9.53385C3.34701 9.55746 3.30298 9.52542 3.31517 9.48672L3.40982 9.18767L3.15749 9.0013C3.12484 8.97713 3.14165 8.92538 3.18227 8.92503L3.49595 8.92264L3.59518 8.62506C3.60797 8.58657 3.66246 8.58657 3.67531 8.62506Z" fill="#F5F5F5"/>
<path d="M3.67531 10.182L3.77454 10.4796L4.08821 10.4819C4.12884 10.4823 4.14565 10.5341 4.11299 10.5582L3.86066 10.7446L3.95532 11.0436C3.96761 11.0823 3.92348 11.1144 3.89042 11.0908L3.63524 10.9084L3.38007 11.0908C3.34701 11.1144 3.30298 11.0823 3.31517 11.0436L3.40982 10.7446L3.15749 10.5582C3.12484 10.534 3.14165 10.4823 3.18227 10.4819L3.49595 10.4796L3.59518 10.182C3.60797 10.1434 3.66246 10.1434 3.67531 10.182Z" fill="#F5F5F5"/>
<path d="M3.67531 11.7384L3.77454 12.036L4.08821 12.0384C4.12884 12.0387 4.14565 12.0905 4.11299 12.1147L3.86066 12.301L3.95532 12.6001C3.96761 12.6388 3.92348 12.6709 3.89042 12.6472L3.63524 12.4648L3.38007 12.6472C3.34701 12.6708 3.30298 12.6388 3.31517 12.6001L3.40982 12.301L3.15749 12.1147C3.12484 12.0905 3.14165 12.0387 3.18227 12.0384L3.49595 12.036L3.59518 11.7384C3.60797 11.6998 3.66246 11.6998 3.67531 11.7384Z" fill="#F5F5F5"/>
<path d="M4.88359 6.27496L4.98282 6.57254L5.29649 6.57493C5.33712 6.57528 5.35392 6.62708 5.32127 6.6512L5.06894 6.83757L5.1636 7.13662C5.17589 7.17531 5.13176 7.20741 5.0987 7.18374L4.84352 7.00134L4.58835 7.18374C4.55529 7.20736 4.51126 7.17531 4.52345 7.13662L4.61811 6.83757L4.36577 6.6512C4.33312 6.62703 4.34993 6.57528 4.39056 6.57493L4.70423 6.57254L4.80346 6.27496C4.8162 6.23647 4.87074 6.23647 4.88359 6.27496Z" fill="#F5F5F5"/>
<path d="M4.88359 7.83164L4.98282 8.12922L5.29649 8.1316C5.33712 8.13196 5.35392 8.18376 5.32127 8.20788L5.06894 8.39424L5.1636 8.69329C5.17589 8.73198 5.13176 8.76408 5.0987 8.74041L4.84352 8.55801L4.58835 8.74041C4.55529 8.76403 4.51126 8.73204 4.52345 8.69329L4.61811 8.39424L4.36577 8.20788C4.33312 8.1837 4.34993 8.13196 4.39056 8.1316L4.70423 8.12922L4.80346 7.83164C4.8162 7.7931 4.87074 7.7931 4.88359 7.83164Z" fill="#F5F5F5"/>
<path d="M4.88359 9.38853L4.98282 9.6861L5.29649 9.68849C5.33712 9.68885 5.35392 9.74064 5.32127 9.76476L5.06894 9.95113L5.1636 10.2502C5.17589 10.2889 5.13176 10.321 5.0987 10.2973L4.84352 10.1149L4.58835 10.2973C4.55529 10.3209 4.51126 10.2889 4.52345 10.2502L4.61811 9.95113L4.36577 9.76476C4.33312 9.74059 4.34993 9.68885 4.39056 9.68849L4.70423 9.6861L4.80346 9.38853C4.8162 9.34998 4.87074 9.34998 4.88359 9.38853Z" fill="#F5F5F5"/>
<path d="M4.88359 10.9451L4.98282 11.2427L5.29649 11.2451C5.33712 11.2454 5.35392 11.2972 5.32127 11.3214L5.06894 11.5077L5.1636 11.8068C5.17589 11.8455 5.13176 11.8776 5.0987 11.8539L4.84352 11.6715L4.58835 11.8539C4.55529 11.8775 4.51126 11.8455 4.52345 11.8068L4.61811 11.5077L4.36577 11.3214C4.33312 11.2972 4.34993 11.2454 4.39056 11.2451L4.70423 11.2427L4.80346 10.9451C4.8162 10.9066 4.87074 10.9066 4.88359 10.9451Z" fill="#F5F5F5"/>
<path d="M6.09183 5.51182L6.19106 5.80939L6.50474 5.81178C6.54536 5.81214 6.56217 5.86393 6.52952 5.88805L6.27718 6.07442L6.37184 6.37347C6.38413 6.41216 6.34 6.44426 6.30694 6.42059L6.05172 6.23819L5.79654 6.42059C5.76348 6.44421 5.71945 6.41216 5.73164 6.37347L5.8263 6.07442L5.57397 5.88805C5.54131 5.86388 5.55812 5.81214 5.59875 5.81178L5.91242 5.80939L6.01165 5.51182C6.0245 5.47327 6.07898 5.47327 6.09183 5.51182Z" fill="#F5F5F5"/>
<path d="M6.09183 7.06842L6.19106 7.366L6.50474 7.36838C6.54536 7.36874 6.56217 7.42054 6.52952 7.44466L6.27718 7.63102L6.37184 7.93007C6.38413 7.96877 6.34 8.00086 6.30694 7.9772L6.05172 7.79479L5.79654 7.9772C5.76348 8.00081 5.71945 7.96877 5.73164 7.93007L5.8263 7.63102L5.57397 7.44466C5.54131 7.42049 5.55812 7.36874 5.59875 7.36838L5.91242 7.366L6.01165 7.06842C6.0245 7.02993 6.07898 7.02993 6.09183 7.06842Z" fill="#F5F5F5"/>
<path d="M6.09183 8.62506L6.19106 8.92264L6.50474 8.92503C6.54536 8.92538 6.56217 8.97718 6.52952 9.0013L6.27718 9.18767L6.37184 9.48672C6.38413 9.52542 6.34 9.55751 6.30694 9.53385L6.05172 9.35144L5.79654 9.53385C5.76348 9.55746 5.71945 9.52542 5.73164 9.48672L5.8263 9.18767L5.57397 9.0013C5.54131 8.97713 5.55812 8.92538 5.59875 8.92503L5.91242 8.92264L6.01165 8.62506C6.0245 8.58657 6.07898 8.58657 6.09183 8.62506Z" fill="#F5F5F5"/>
<path d="M6.09183 10.182L6.19106 10.4796L6.50474 10.4819C6.54536 10.4823 6.56217 10.5341 6.52952 10.5582L6.27718 10.7446L6.37184 11.0436C6.38413 11.0823 6.34 11.1144 6.30694 11.0908L6.05172 10.9084L5.79654 11.0908C5.76348 11.1144 5.71945 11.0823 5.73164 11.0436L5.8263 10.7446L5.57397 10.5582C5.54131 10.534 5.55812 10.4823 5.59875 10.4819L5.91242 10.4796L6.01165 10.182C6.0245 10.1434 6.07898 10.1434 6.09183 10.182Z" fill="#F5F5F5"/>
<path d="M6.09183 11.7384L6.19106 12.036L6.50474 12.0384C6.54536 12.0387 6.56217 12.0905 6.52952 12.1147L6.27718 12.301L6.37184 12.6001C6.38413 12.6388 6.34 12.6709 6.30694 12.6472L6.05172 12.4648L5.79654 12.6472C5.76348 12.6708 5.71945 12.6388 5.73164 12.6001L5.8263 12.301L5.57397 12.1147C5.54131 12.0905 5.55812 12.0387 5.59875 12.0384L5.91242 12.036L6.01165 11.7384C6.0245 11.6998 6.07898 11.6998 6.09183 11.7384Z" fill="#F5F5F5"/>
<path d="M7.30007 6.27496L7.39929 6.57254L7.71297 6.57493C7.75359 6.57528 7.7704 6.62708 7.73775 6.6512L7.48542 6.83757L7.58007 7.13662C7.59236 7.17531 7.54823 7.20741 7.51518 7.18374L7.26 7.00134L7.00482 7.18374C6.97176 7.20736 6.92774 7.17531 6.93992 7.13662L7.03458 6.83757L6.78225 6.6512C6.7496 6.62703 6.7664 6.57528 6.80703 6.57493L7.12071 6.57254L7.21993 6.27496C7.23278 6.23647 7.28722 6.23647 7.30007 6.27496Z" fill="#F5F5F5"/>
<path d="M7.30007 7.83164L7.39929 8.12922L7.71297 8.1316C7.75359 8.13196 7.7704 8.18376 7.73775 8.20788L7.48542 8.39424L7.58007 8.69329C7.59236 8.73198 7.54823 8.76408 7.51518 8.74041L7.26 8.55801L7.00482 8.74041C6.97176 8.76403 6.92774 8.73204 6.93992 8.69329L7.03458 8.39424L6.78225 8.20788C6.7496 8.1837 6.7664 8.13196 6.80703 8.1316L7.12071 8.12922L7.21993 7.83164C7.23278 7.7931 7.28722 7.7931 7.30007 7.83164Z" fill="#F5F5F5"/>
<path d="M7.30007 9.38853L7.39929 9.6861L7.71297 9.68849C7.75359 9.68885 7.7704 9.74064 7.73775 9.76476L7.48542 9.95113L7.58007 10.2502C7.59236 10.2889 7.54823 10.321 7.51518 10.2973L7.26 10.1149L7.00482 10.2973C6.97176 10.3209 6.92774 10.2889 6.93992 10.2502L7.03458 9.95113L6.78225 9.76476C6.7496 9.74059 6.7664 9.68885 6.80703 9.68849L7.12071 9.6861L7.21993 9.38853C7.23278 9.34998 7.28722 9.34998 7.30007 9.38853Z" fill="#F5F5F5"/>
<path d="M7.30007 10.9451L7.39929 11.2427L7.71297 11.2451C7.75359 11.2454 7.7704 11.2972 7.73775 11.3214L7.48542 11.5077L7.58007 11.8068C7.59236 11.8455 7.54823 11.8776 7.51518 11.8539L7.26 11.6715L7.00482 11.8539C6.97176 11.8775 6.92774 11.8455 6.93992 11.8068L7.03458 11.5077L6.78225 11.3214C6.7496 11.2972 6.7664 11.2454 6.80703 11.2451L7.12071 11.2427L7.21993 10.9451C7.23278 10.9066 7.28722 10.9066 7.30007 10.9451Z" fill="#F5F5F5"/>
<path d="M8.50835 5.51182L8.60758 5.80939L8.92125 5.81178C8.96188 5.81214 8.97869 5.86393 8.94603 5.88805L8.6937 6.07442L8.78836 6.37347C8.80065 6.41216 8.75652 6.44426 8.72346 6.42059L8.46828 6.23819L8.21311 6.42059C8.18005 6.44421 8.13602 6.41216 8.14821 6.37347L8.24286 6.07442L7.99053 5.88805C7.95788 5.86388 7.97469 5.81214 8.01531 5.81178L8.32899 5.80939L8.42822 5.51182C8.44096 5.47327 8.4955 5.47327 8.50835 5.51182Z" fill="#F5F5F5"/>
<path d="M8.50835 7.06842L8.60758 7.366L8.92125 7.36838C8.96188 7.36874 8.97869 7.42054 8.94603 7.44466L8.6937 7.63102L8.78836 7.93007C8.80065 7.96877 8.75652 8.00086 8.72346 7.9772L8.46828 7.79479L8.21311 7.9772C8.18005 8.00081 8.13602 7.96877 8.14821 7.93007L8.24286 7.63102L7.99053 7.44466C7.95788 7.42049 7.97469 7.36874 8.01531 7.36838L8.32899 7.366L8.42822 7.06842C8.44096 7.02993 8.4955 7.02993 8.50835 7.06842Z" fill="#F5F5F5"/>
<path d="M8.50835 8.62506L8.60758 8.92264L8.92125 8.92503C8.96188 8.92538 8.97869 8.97718 8.94603 9.0013L8.6937 9.18767L8.78836 9.48672C8.80065 9.52542 8.75652 9.55751 8.72346 9.53385L8.46828 9.35144L8.21311 9.53385C8.18005 9.55746 8.13602 9.52542 8.14821 9.48672L8.24286 9.18767L7.99053 9.0013C7.95788 8.97713 7.97469 8.92538 8.01531 8.92503L8.32899 8.92264L8.42822 8.62506C8.44096 8.58657 8.4955 8.58657 8.50835 8.62506Z" fill="#F5F5F5"/>
<path d="M8.50835 10.182L8.60758 10.4796L8.92125 10.4819C8.96188 10.4823 8.97869 10.5341 8.94603 10.5582L8.6937 10.7446L8.78836 11.0436C8.80065 11.0823 8.75652 11.1144 8.72346 11.0908L8.46828 10.9084L8.21311 11.0908C8.18005 11.1144 8.13602 11.0823 8.14821 11.0436L8.24286 10.7446L7.99053 10.5582C7.95788 10.534 7.97469 10.4823 8.01531 10.4819L8.32899 10.4796L8.42822 10.182C8.44096 10.1434 8.4955 10.1434 8.50835 10.182Z" fill="#F5F5F5"/>
<path d="M8.50835 11.7384L8.60758 12.036L8.92125 12.0384C8.96188 12.0387 8.97869 12.0905 8.94603 12.1147L8.6937 12.301L8.78836 12.6001C8.80065 12.6388 8.75652 12.6709 8.72346 12.6472L8.46828 12.4648L8.21311 12.6472C8.18005 12.6708 8.13602 12.6388 8.14821 12.6001L8.24286 12.301L7.99053 12.1147C7.95788 12.0905 7.97469 12.0387 8.01531 12.0384L8.32899 12.036L8.42822 11.7384C8.44096 11.6998 8.4955 11.6998 8.50835 11.7384Z" fill="#F5F5F5"/>
<path d="M9.71657 6.27496L9.81579 6.57254L10.1295 6.57493C10.1701 6.57528 10.1869 6.62708 10.1542 6.6512L9.90192 6.83757L9.99657 7.13662C10.0089 7.17531 9.96473 7.20741 9.93167 7.18374L9.6765 7.00134L9.42132 7.18374C9.38827 7.20736 9.34424 7.17531 9.35643 7.13662L9.45108 6.83757L9.19875 6.6512C9.1661 6.62703 9.18291 6.57528 9.22353 6.57493L9.53721 6.57254L9.63643 6.27496C9.64923 6.23647 9.70377 6.23647 9.71657 6.27496Z" fill="#F5F5F5"/>
<path d="M9.71657 7.83164L9.81579 8.12922L10.1295 8.1316C10.1701 8.13196 10.1869 8.18376 10.1542 8.20788L9.90192 8.39424L9.99657 8.69329C10.0089 8.73198 9.96473 8.76408 9.93167 8.74041L9.6765 8.55801L9.42132 8.74041C9.38827 8.76403 9.34424 8.73204 9.35643 8.69329L9.45108 8.39424L9.19875 8.20788C9.1661 8.1837 9.18291 8.13196 9.22353 8.1316L9.53721 8.12922L9.63643 7.83164C9.64923 7.7931 9.70377 7.7931 9.71657 7.83164Z" fill="#F5F5F5"/>
<path d="M9.71657 9.38853L9.81579 9.6861L10.1295 9.68849C10.1701 9.68885 10.1869 9.74064 10.1542 9.76476L9.90192 9.95113L9.99657 10.2502C10.0089 10.2889 9.96473 10.321 9.93167 10.2973L9.6765 10.1149L9.42132 10.2973C9.38827 10.3209 9.34424 10.2889 9.35643 10.2502L9.45108 9.95113L9.19875 9.76476C9.1661 9.74059 9.18291 9.68885 9.22353 9.68849L9.53721 9.6861L9.63643 9.38853C9.64923 9.34998 9.70377 9.34998 9.71657 9.38853Z" fill="#F5F5F5"/>
<path d="M9.71657 10.9451L9.81579 11.2427L10.1295 11.2451C10.1701 11.2454 10.1869 11.2972 10.1542 11.3214L9.90192 11.5077L9.99657 11.8068C10.0089 11.8455 9.96473 11.8776 9.93167 11.8539L9.6765 11.6715L9.42132 11.8539C9.38827 11.8775 9.34424 11.8455 9.35643 11.8068L9.45108 11.5077L9.19875 11.3214C9.1661 11.2972 9.18291 11.2454 9.22353 11.2451L9.53721 11.2427L9.63643 10.9451C9.64923 10.9066 9.70377 10.9066 9.71657 10.9451Z" fill="#F5F5F5"/>
<path d="M10.9249 5.51182L11.0241 5.80939L11.3378 5.81178C11.3784 5.81214 11.3952 5.86393 11.3626 5.88805L11.1102 6.07442L11.2049 6.37347C11.2172 6.41216 11.173 6.44426 11.14 6.42059L10.8848 6.23819L10.6296 6.42059C10.5966 6.44421 10.5526 6.41216 10.5647 6.37347L10.6594 6.07442L10.4071 5.88805C10.3744 5.86388 10.3912 5.81214 10.4318 5.81178L10.7455 5.80939L10.8447 5.51182C10.8575 5.47327 10.912 5.47327 10.9249 5.51182Z" fill="#F5F5F5"/>
<path d="M10.9249 7.06842L11.0241 7.366L11.3378 7.36838C11.3784 7.36874 11.3952 7.42054 11.3626 7.44466L11.1102 7.63102L11.2049 7.93007C11.2172 7.96877 11.173 8.00086 11.14 7.9772L10.8848 7.79479L10.6296 7.9772C10.5966 8.00081 10.5526 7.96877 10.5647 7.93007L10.6594 7.63102L10.4071 7.44466C10.3744 7.42049 10.3912 7.36874 10.4318 7.36838L10.7455 7.366L10.8447 7.06842C10.8575 7.02993 10.912 7.02993 10.9249 7.06842Z" fill="#F5F5F5"/>
<path d="M10.9249 8.62506L11.0241 8.92264L11.3378 8.92503C11.3784 8.92538 11.3952 8.97718 11.3626 9.0013L11.1102 9.18767L11.2049 9.48672C11.2172 9.52542 11.173 9.55751 11.14 9.53385L10.8848 9.35144L10.6296 9.53385C10.5966 9.55746 10.5526 9.52542 10.5647 9.48672L10.6594 9.18767L10.4071 9.0013C10.3744 8.97713 10.3912 8.92538 10.4318 8.92503L10.7455 8.92264L10.8447 8.62506C10.8575 8.58657 10.912 8.58657 10.9249 8.62506Z" fill="#F5F5F5"/>
<path d="M10.9249 10.182L11.0241 10.4796L11.3378 10.4819C11.3784 10.4823 11.3952 10.5341 11.3626 10.5582L11.1102 10.7446L11.2049 11.0436C11.2172 11.0823 11.173 11.1144 11.14 11.0908L10.8848 10.9084L10.6296 11.0908C10.5966 11.1144 10.5526 11.0823 10.5647 11.0436L10.6594 10.7446L10.4071 10.5582C10.3744 10.534 10.3912 10.4823 10.4318 10.4819L10.7455 10.4796L10.8447 10.182C10.8575 10.1434 10.912 10.1434 10.9249 10.182Z" fill="#F5F5F5"/>
<path d="M10.9249 11.7384L11.0241 12.036L11.3378 12.0384C11.3784 12.0387 11.3952 12.0905 11.3626 12.1147L11.1102 12.301L11.2049 12.6001C11.2172 12.6388 11.173 12.6709 11.14 12.6472L10.8848 12.4648L10.6296 12.6472C10.5966 12.6708 10.5526 12.6388 10.5647 12.6001L10.6594 12.301L10.4071 12.1147C10.3744 12.0905 10.3912 12.0387 10.4318 12.0384L10.7455 12.036L10.8447 11.7384C10.8575 11.6998 10.912 11.6998 10.9249 11.7384Z" fill="#F5F5F5"/>
</svg>
