<?xml version="1.0" standalone="no"?>
<!DOCTYPE svg PUBLIC "-//W3C//DTD SVG 1.1//EN" "http://www.w3.org/Graphics/SVG/1.1/DTD/svg11.dtd" >
<svg xmlns="http://www.w3.org/2000/svg">
<metadata>Generated by IcoMoon</metadata>
<defs>
<font id="icomoon" horiz-adv-x="1024">
<font-face units-per-em="1024" ascent="960" descent="-64" />
<missing-glyph horiz-adv-x="1024" />
<glyph unicode="&#x20;" horiz-adv-x="512" d="" />
<glyph unicode="&#xe900;" glyph-name="map_by" horiz-adv-x="1174" d="M395.039 364.624l-0.235-1.644-0.235-7.633 0.235-0.939 0.47-0.822 1.174-1.409 0.587-1.174 0.587-1.879 0.117-1.292v-3.64l-0.235-1.527-0.822-1.057-1.174-0.705-0.705-0.117-5.050-0.117-0.705-0.352-1.409-1.057-1.057-1.057-1.644-2.231-2.114-3.758-0.939-2.114-0.352-1.409v-0.939l0.235-0.822 0.705-0.705 1.527-0.822 1.057-0.235h0.939l2.231 0.352 0.587-0.235 0.47-0.587 0.117-1.879 0.235-0.822 1.879-1.292 0.587-0.587 0.235-1.174 0.235-2.466 0.352-0.822 0.587-0.705 1.174-0.587 1.057-0.352 8.455-0.47 0.822-0.117 0.705-0.47 4.11-4.932 0.47-0.822 1.761-4.11 0.235-1.527-0.117-1.057-1.174-0.47-1.057-0.117-5.050 0.587-1.527-0.235-1.292-0.587-1.057-0.822-0.705-1.174-0.705-1.292-0.822-1.996-1.057-3.053-0.705-1.292-0.47-0.352-1.644-0.939-0.352-0.587v-1.057l0.235-1.409 1.057-2.349 5.284-8.925 0.47-1.292 0.352-2.349 0.235-0.939 0.939-2.466-0.117-0.822-0.352-0.587-3.171-2.466-0.705-1.057v-0.939l0.47-1.174 3.523-5.284 1.057-0.587 0.939 0.352 1.057 1.057 1.174 1.527 0.939 0.939 1.174 0.587h4.11l0.705 0.47 0.47 1.527 0.352 2.701 0.352 1.527 0.47 0.587 0.587 0.352 3.523 0.705 1.057-0.235 1.409-0.587 2.231-1.761 3.171-1.409 0.587-0.705 0.352-1.292 0.117-2.818 0.235-0.705 0.47-0.705 0.705-0.587 1.409-0.587 1.879-0.117 3.875 1.409 0.705 0.117 0.822-0.47 0.705-0.939 3.053-5.872 2.701-4.345 0.587-0.705 1.174-0.705 12.448-3.875 4.228-2.466 1.409-0.587h0.587l0.587 0.235 0.939 0.939 1.527 2.231 0.352 0.47 0.587 0.235 0.587-0.235 3.875-2.701 0.822-1.174v-1.174l-0.235-0.822-0.705-1.292v-0.822l0.235-1.057 3.993-6.459 0.939-0.939 0.939-0.587 4.228-0.822h6.459l0.705-0.235 0.705-0.47 1.174-1.879 1.409-2.349 0.352-1.996-0.117-1.996-0.352-2.114-0.352-0.587-1.174-0.705-14.561-0.705-0.705-0.235-0.705-1.057-0.939-3.053v-0.939l0.235-0.822 2.466-2.231 0.587-1.292-0.117-0.939-0.47-0.587-2.349-2.349 0.705-1.527 1.644-2.349 5.284-5.519 4.932-3.875 0.587-0.822 0.705-1.879 0.352-1.174v-1.057l-0.117-0.705-0.587-1.527-0.352-0.587-2.114-2.466-0.235-0.587-0.117-0.587 1.879-1.409 15.736-9.747 0.705-1.527v-1.292l0.235-1.409 0.822-2.114 0.705-0.822 0.822-0.352 6.459-0.235 1.409-0.587 0.939-0.939 0.47-0.939 1.292-3.758 0.705-1.057 0.822-0.705 3.288-1.527 12.213-7.633 0.939-0.822 0.705-1.057 0.47-1.174v-1.527l-0.47-1.527-1.292-2.231-0.587-1.409-0.117-0.939 0.117-0.939 0.235-1.761 0.117-1.644-0.235-5.284 0.235-2.466 0.352-9.982 0.117-1.409 0.587-1.057 2.349-2.231 1.644-1.996 3.053-2.583 1.057-1.527 0.117-0.822-0.117-1.057-0.705-1.996-1.057-1.761-7.281-9.512-0.235-0.822v-1.057l0.235-1.644 0.822-2.583v-2.231l-0.705-3.64-0.939-3.406-0.587-1.292-1.057-1.644-0.235-1.174 0.47-0.822 0.939-1.057 3.758-3.64 0.705-1.057 0.587-1.057 0.235-1.292 0.117-1.761-0.117-5.872-0.352-2.114-1.057-2.936-0.587-1.409-0.587-0.939-0.587-0.352-1.527-0.117-1.174-3.171 0.235-15.149 0.117-1.174-4.345 0.117-2.231-1.174-3.406-3.758-2.701-1.409-2.583-0.117-7.281 1.174-4.815-1.527-2.701-0.352-1.644 1.644 0.705 3.288 1.761 4.228 0.352 3.406-3.64 0.939-2.936-0.352-2.466 0.235-1.761 1.761-0.939 3.875v5.284l0.352 4.228-0.822 3.053-3.288 1.996-5.050 1.057-10.804 0.47-12.33-4.345-8.103 1.292-23.251 10.334-27.009 0.822-1.644 0.939-1.527 2.114-0.352 1.879 0.352 1.879v1.409l-1.409 0.705-28.536 1.292-3.64 1.527-7.985 7.163-3.64 0.822-8.572-0.235-26.187 4.932-10.334-2.114-40.631 0.705-20.668 5.637-5.637-0.117-5.519-1.879-11.039-5.754-34.407-5.637-2.583 0.117-7.516 1.761-30.532-2.349-2.583-0.939-2.701-2.818-4.462-6.694-1.879-3.875-2.936-12.917-3.406-4.815-13.974-9.629-18.319-16.558-4.932-0.822-3.406 3.288-3.523 4.228-4.815 1.996-3.053 0.235-8.69 2.583-2.818 0.117-11.978-3.171-1.527-0.822-1.292-1.292-1.409-2.583-0.117-1.644 0.705-1.527 3.288-9.512 0.352-1.879-0.587-3.053-1.057-0.587-1.174 0.939-0.47 2.583-1.644 1.057-1.996 0.705-1.527 3.053h1.761l-2.701 4.697-1.057 2.701-0.47 2.818 0.587 5.402-0.117 1.879-1.409 1.527v1.527l1.174 0.117 0.705 0.47 1.527 1.996-0.587 0.822-0.705 1.409-0.47 1.174 0.587 0.587 1.057 0.587-0.235 1.174-0.822 1.409-0.47 1.057 0.705 4.58 0.47 2.114 0.47 1.409 2.114 2.349 2.583 1.644 2.349 2.349 1.409 4.58-2.349 3.053-1.879 3.64 1.409 1.644 0.47 4.345 1.527 0.822-0.235 1.057-0.705 0.235 0.822 2.231 0.117 6.459 0.822 3.64 2.231 5.519 1.644 2.583 1.996 1.409-1.409 3.406-1.761 7.633-1.057 2.466-0.117 2.231-0.47 2.349-1.527 1.057-1.174 0.47-0.705 1.292-0.587 1.644-0.822 1.527-2.349 1.409-5.754-0.235-2.466 0.822-3.406 6.811 0.47 0.705 0.352 2.349-0.47 1.527-1.996-1.996-0.822 0.939-1.174 1.057-0.47 0.939-1.761-2.114-1.174 0.235-1.057 1.174-1.527 0.705-1.761-0.705-0.352 0.352 0.822 1.761v1.292l-2.466 0.235-7.633 2.936-1.644 1.644-1.879-0.822-8.807 2.466-2.818 1.761 0.939 3.523-0.352 2.701-1.292 1.879-1.879 1.527-0.352 0.117 5.637 11.743 2.349 3.523 4.932 5.989 14.914 23.017 10.804 9.042 10.804 6.459 20.55 5.754 16.323 11.156 4.815 6.106 1.761 8.69-0.352 5.989 2.231 0.47 16.323-1.292 1.292 0.47 1.174 0.705 3.758 3.171 2.701 1.761 1.174 0.117 0.822-0.117 0.47-0.47 0.939-1.761 0.705-1.174 0.939-0.587 1.527-0.587 5.167-0.939 1.292 0.117 5.167 1.879h0.939l0.705-0.117 0.235-0.352 0.235-1.292 0.235-0.705 0.587-0.705 0.587-0.117 0.587 0.235 1.879 1.292 3.053 0.939 1.174 0.117 0.939-0.235 0.587-0.352 5.519-3.875 0.939-1.057 0.705-0.47 2.701-1.409 3.171-0.587 2.936 0.235 2.818 0.822 1.409 0.939 0.235 0.47 0.352 1.057 0.117 0.705-0.117 1.644-0.352 1.527-0.47 1.292-1.057 1.644-0.117 1.292 0.939 1.761 0.939 2.936 0.705 1.057 2.701 1.996 0.235 0.587 0.117 1.527-0.587 1.292-1.292 1.409-0.352 0.47v0.587l0.235 0.587 2.583 2.936 0.352 0.587 0.822 0.822 1.174 0.939 2.936 1.527 1.174 0.939 0.822 0.822 0.235 0.705-0.117 1.527-0.47 0.47-0.587 0.352-3.406 0.47-1.057 0.705-0.235 0.587 0.117 0.587 0.939 1.057 5.989 3.406 1.644 0.587 1.174 0.117 7.633-3.875 6.576-1.527h3.993l1.292 0.352 0.822 0.47 0.705 1.174 0.822 2.349 0.587 0.939 1.057 1.174 0.939 0.352 0.939 0.117 3.171-0.705 1.292-0.587 1.057-0.939 0.822-0.939 1.057-1.761 0.47-1.292 0.47-2.114v-1.527l-0.47-2.231v-0.705l0.587-0.822 5.167-2.114 1.527-0.235 0.822 0.235 0.587 0.47 1.292 2.701 0.47 0.705 0.822 0.822 0.705 0.117 0.705-0.117 0.47-0.352 0.235-0.47-0.117-0.705-1.644-5.989-0.235-1.527v-0.705l0.705-1.057 0.117-1.409-0.235-0.822-0.235-1.527 0.47-0.705 0.822-0.587 1.527-0.47 0.939 0.117 0.705 0.47 1.057 0.939 4.932 1.879 1.409 0.235 1.409-0.117 1.879-0.47 1.057-0.117 0.939 0.117 0.587 0.352 0.352 0.47 1.996 1.644 2.701 1.057 1.527 0.235 1.057-0.235 0.235-0.587 0.235-1.527 0.705-1.174 1.057-0.705 1.996-0.822 1.879-0.47 0.939 0.117 0.822 0.235 0.939 0.822 0.352 0.587 0.235 1.527-0.235 0.705-0.352 0.587-1.996 0.822-0.47 0.47-0.352 0.587-0.352 1.409v0.705l0.352 0.587 1.409 1.292 0.352 0.47-0.352 1.174-1.879 1.879-0.705 1.174-0.235 1.527 0.352 0.939 0.705 1.057 1.644 1.174 1.057 0.117 0.939-0.235 1.057-0.352 2.466-0.235 1.996 0.47 3.053 1.409 1.057 1.057 0.47 0.939 0.117 1.527 0.705 1.292 1.292 1.409 0.822 1.174 1.409 2.466 1.292 1.879 1.174 1.292 6.341 3.758 0.822 1.057 0.352 0.587 3.053 8.807 3.875 7.516 1.057 3.053 0.235 1.644-0.235 1.527-0.235 0.587-0.939 1.879-1.292 1.527-1.174 0.705-2.466 0.47-0.587 0.47-0.117 0.587v0.822l0.822 1.409 2.583 2.349 1.996 1.527 1.057 0.822 0.587 0.939 0.117 0.705-0.117 1.527-0.822 1.057-2.349 1.527-0.705 1.057-0.117 0.822 0.822 3.288 0.352 0.939 0.705 1.174 0.822 0.47 3.64 0.352 0.822 0.47 0.587 0.47 0.47 1.527 0.705 6.106 0.235 1.409 0.587 1.761 3.523 6.106 1.292 2.936 0.705 1.057 1.409 1.761 1.057 0.705 0.822 0.352 1.644-0.235 1.644-0.47h1.292l3.875 0.939h1.174l1.292-0.47 1.644-1.292 0.822-0.117h1.174l1.996 0.47 1.292 0.117 0.939-0.117 0.587-0.47 1.292-1.527 1.174-0.587 17.38-1.527 2.583 0.705 2.701 0.235 6.576-1.644 10.451-0.587 3.053-0.939 2.583-1.292 0.705-0.235 3.171 0.235 9.512 2.583zM1006.503 314.481l0.47-2.114 0.235-2.231-0.352-1.996-1.174-1.409-3.053-0.587-1.292-0.587-6.106-9.747-2.701-2.936 9.277-7.516 1.996-3.993 3.288-9.982 2.701-4.228 3.758-3.64 3.993-2.583 3.64-1.292 2.936-0.47 0.939-1.527 0.352-2.583 1.057-3.406 1.761-2.466 1.527-0.939 1.292-1.644 1.057-3.875v-8.572l-2.701-3.993-8.22-4.697 1.292-3.171 5.519-7.398 3.64-8.103 1.644-2.466 4.345-3.875 1.644-2.231-0.47-1.996-1.644-0.352-4.462 1.057-1.879-0.117 0.587-0.705 1.409-2.583-2.114-0.939-0.939-1.644 0.235-1.879 1.527-1.996 2.818-1.996 0.117-4.932-0.705-5.989v-5.167l0.822-2.231 1.292-1.644 0.939-2.231 0.117-3.64-0.822-2.701-1.292-2.466-1.527-1.996-1.527-1.409 3.758-5.402 1.996-2.349 2.114-1.644 2.114-0.705 4.345-0.822 1.879-1.174-1.292-1.644-0.822-2.466-0.235-2.936 0.352-2.818 0.822-2.114 1.174-1.174 6.106-4.345 1.644-2.818 0.587-3.875-0.352-5.989-13.974-0.705-21.49 4.228-11.273-0.117-9.629-3.993-2.466-3.288-1.879-3.993-2.114-3.288-2.818-1.292-2.936 1.174-5.637 4.815-2.936 1.761-4.815 0.587-16.793-1.057-3.053-0.939-1.879-2.114 0.705-3.406-0.587-0.939-0.587-1.996-0.47-0.939 3.64-0.587 1.174-2.583-1.174-2.583-3.171-0.235-0.822 1.174-0.705 0.235-0.705-0.235-0.939-0.822-1.057-1.292-0.235-1.174 0.117-1.644-1.292-1.761-1.409-1.527-1.409-1.174-1.761-1.057-3.523-1.409v-0.705l0.235-1.174 0.705-0.939v-1.292l-1.644-2.349-1.057-1.174-1.174-0.587-3.64 0.352-0.939-0.352-0.47-1.174-0.117-1.879-0.352-1.761-2.466-1.292-0.822-1.292-0.587-1.292-0.587-0.705-0.352-0.587-2.701-3.523-0.822-1.527-0.47-0.587v-0.705l0.939-1.879 0.117-3.053-2.231-2.349-2.701-1.761-1.527-1.761 2.466-1.174 0.939-0.117v-1.527l-1.292-1.409-0.47-2.349-0.117-2.466-0.705-1.879-1.409-0.587-3.758-0.117-1.527-0.47 0.705-2.701-1.409-4.228 0.705-2.701-0.822-0.822-1.057-1.527-0.587-0.47 0.352-0.822 0.47-1.879-1.644-0.705-3.523-3.171v-1.527l2.466-1.996 1.057-0.705v-1.174l-1.057-0.352-1.527-1.174v-1.174l1.409-1.879 4.11-1.174 1.996-1.057-0.939-2.114-0.587-0.939-1.057-0.939 1.527-1.174 1.292-1.292 0.47-1.409-0.705-1.644 0.587-2.349 1.057-1.527 1.292-0.822 1.292-0.587v-1.409l-1.644 0.235-1.409-0.47-0.939-1.292-0.235-2.583 0.47-2.349 0.939-0.47h1.292l1.527-1.174 0.587-1.292 1.174-5.519 0.587-1.057 0.822-1.174 0.235-1.057-1.644-0.587 0.705-5.637-3.406-3.523-3.758-2.818-0.352-2.818-2.231-3.875-0.235-0.352-0.235-4.697-0.587-1.292-1.292-0.352-0.939 1.879-1.409 1.527-1.527 1.057-1.644 0.352-1.761-0.117-1.879 0.587-2.701 4.11-1.879 1.761-1.761 0.352h-3.64l-1.879 0.705-1.644 1.527-3.758 4.815-0.939 2.114 0.352 0.235 1.057 4.11 0.235 1.527v1.996l-0.117 1.644-0.352 1.292-0.705 1.292-1.644 1.527-6.106 3.053-1.761 1.761-4.58 6.341-3.523 2.583-3.523 0.939-17.145-0.47-2.818-0.822-7.398-3.875-1.527-0.117-1.996 1.292-1.292 0.117-1.527-1.057-1.996-3.875-1.292-1.292-2.231-0.587-11.156 1.879-1.527 2.114-1.057 3.053-1.996 3.523-2.114 1.527-2.701 0.352-2.818-0.47-2.466-1.057-2.466-2.231-1.761-2.583-1.879-2.231-2.818-1.174-3.171-0.352-1.644-0.939-1.292-2.231-1.761-4.815-1.761-3.171-2.466-0.117-5.402 2.231-2.818-0.939-4.815-4.11-2.466-0.939-2.818 1.644-1.527 3.523-1.057 4.228-1.409 3.875-2.466 2.936-2.114 1.527-0.822 2.231 1.174 5.050-0.47 5.167-1.409 3.288-4.11 6.224-2.583 7.163-1.527 2.466-2.936 1.879-4.932 1.174-2.466-0.117-2.466-0.939-2.466-2.349-2.818-6.224-2.349-2.583-3.288-1.174-7.516-0.117-3.64-0.822-3.875-2.114-3.875-3.053-3.523-4.228-2.349-5.402-0.352-3.288 0.235-7.516-0.587-2.936-2.231-2.466-1.292 1.996-0.822 3.64-0.939 2.466-1.527 0.117-1.644-1.057-1.761-0.705-1.996 0.939-1.174 2.114-0.822 2.701-1.879 11.039-0.352 3.993-1.057 2.701-3.171 1.292-11.039 2.349h-3.288l-3.171-1.174-6.106-4.11-3.171-3.053-1.644-0.822-1.527 0.587-0.705 1.527-1.292 5.519-0.822 1.996-1.527 1.761-3.523 2.231-1.527 1.409-1.057 2.231-0.117 1.879 0.117 1.644-0.47 1.996-1.761 1.996-2.583 0.235-2.701-1.409-2.583-2.349-2.466-3.64-3.993-7.75-2.936-2.583-2.349-0.939h-11.978l-2.231 0.587-2.349 1.292-7.398 8.103-2.583 1.409-2.818-0.47-2.349-2.114-1.527-3.406-0.822-3.875 0.117-2.583 0.235-2.114 0.117-2.114-0.587-2.701-0.587-1.174-5.754-7.868-1.292-1.174-1.996-0.352-1.644 0.822-1.996 1.527-1.644 1.879-0.822 1.527 4.11 9.982 0.939 4.932-1.527 4.11-1.996 1.174-6.811 0.117-13.27 5.402-0.117 1.174-0.235 15.149 1.174 3.171 1.527 0.117 0.587 0.352 0.587 0.939 0.587 1.409 1.057 2.936 0.352 2.114 0.117 5.872-0.117 1.761-0.235 1.292-0.587 1.057-0.705 1.057-3.758 3.64-0.939 1.057-0.47 0.822 0.235 1.174 1.057 1.644 0.587 1.292 0.939 3.406 0.705 3.64v2.231l-0.822 2.583-0.235 1.644v1.057l0.235 0.822 7.281 9.512 1.057 1.761 0.705 1.996 0.117 1.057-0.117 0.822-1.057 1.527-3.053 2.583-1.644 1.996-2.349 2.231-0.587 1.057-0.117 1.409-0.352 9.982-0.235 2.466 0.235 5.284-0.117 1.644-0.235 1.761-0.117 0.939 0.117 0.939 0.587 1.409 1.292 2.231 0.47 1.527v1.527l-0.47 1.174-0.705 1.057-0.939 0.822-12.213 7.633-3.288 1.527-0.822 0.705-0.705 1.057-1.292 3.758-0.47 0.939-0.939 0.939-1.409 0.587-6.459 0.235-0.822 0.352-0.705 0.822-0.822 2.114-0.235 1.409v1.292l-0.705 1.527 7.75 11.156 1.409 3.406-0.705 1.879-0.47 1.409-0.235 1.409-0.117 1.879 0.117 1.409 0.47 0.705 0.705 0.352 3.406 0.235 0.822 0.235 0.47 0.705 0.705 2.583 0.939 2.818 0.822 1.057 0.822 0.47 3.288-0.117 0.47-0.352 0.352-0.587 0.47-1.996 0.47-0.235 8.455 7.163 1.057 0.352 0.705-0.117 1.761-3.523 0.822-1.879 0.822-0.822 0.235 0.47 0.822 2.114 0.939 1.761 0.822 0.705 0.939 0.235 0.705-0.235 0.352-0.587 0.235-1.527-0.352-4.697v-2.231l0.117-1.527 0.352-0.587 0.705-1.057 3.993-3.171 6.341-3.406 1.527-0.352 9.629 0.235 3.993-0.822 13.622 1.292 1.644 0.705 0.352 0.587 0.705 0.47 1.527 0.822 0.47 0.47 0.352 0.587 0.117 1.527-0.352 3.053-0.352 1.292-1.174 2.231 0.117 1.057 0.587 0.939 1.409 1.174 0.939 0.47 0.939 0.235 10.569-2.231 1.292-0.705 0.939-0.822 0.705-1.996 1.057-2.466 1.057-1.644 0.939-0.47 1.409-0.235 25.365 2.936 7.868 6.811 0.587 1.292v2.231l-0.822 5.989-0.235 3.993 0.235 6.694 0.235 2.701 0.117 0.939 0.705 0.939 1.174 1.057 2.701 1.527 1.057 0.939 0.47 0.822-0.352 0.47-0.352 1.174 1.879 2.466 0.47 0.235 7.75 0.705 5.989-0.939 0.939 0.117 0.822 0.352 1.527 1.527 0.705 0.47 0.939 0.352 1.761-0.117 3.406-0.939h0.822l0.822 0.352 0.939 0.822 0.939 0.587 1.174 0.47 5.872 0.117 0.939 0.352 1.057 1.057 1.174 1.409 0.705 0.47 1.057 0.117 3.053-0.117 1.057 0.352 0.822 0.822 0.587 0.822 0.352 0.822 0.117 1.527-0.117 0.587-1.057 0.939-3.053 0.939-1.057 0.705-0.352 0.705 0.117 0.939 0.939 0.822 2.231 1.292 17.262 5.519 0.705 1.292 0.352 1.527 0.117 2.583-0.117 8.22 0.117 0.822 0.47 0.587 1.174 0.352 12.213 0.352 0.822 0.352 0.705 1.174 0.47 1.879 0.47 0.705 0.705 0.587 2.466 1.174 0.587 0.47 1.644 2.349 2.818 4.815 0.939 1.057 0.587 0.47 1.057 0.235 1.527 0.117 5.167-0.352 11.978-3.64 0.47-0.352v-1.057l-0.235-1.644v-0.705l0.352-0.352 0.705-0.117 4.697 1.996 0.587 0.705 0.352 0.822-0.117 0.705-0.352 0.587-0.939 0.939-0.235 0.47 0.117 0.587 0.352 0.47 0.822 0.352 0.939 0.117 1.761-0.47 0.939-0.47 0.705-0.47 1.527-3.053 0.352-0.47 0.587-0.352h0.939l4.58 2.701 1.057 0.822 0.822 1.644 0.587 0.47 0.705 0.352 2.583 0.705 13.035-0.235 1.174-0.235 0.822-0.352 1.527-1.292 1.409-0.705h0.939l1.057 0.235 1.409 0.822 1.174 1.527 1.527 3.053 0.117 1.057-0.705 1.057-5.050 2.818-1.409 1.292-0.939 1.057-0.939 0.939-3.523 2.349-0.47 0.352v0.587l0.352 0.587 2.466 3.406 0.587 1.292v0.822l-0.117 1.527-0.47 1.292-0.47 0.352-1.292 0.352-0.587 0.352-0.235 0.587-0.822 2.818-0.235 1.292 0.47 0.822 3.758 1.761 0.587 0.822 0.117 0.705-0.47 0.47-1.409 1.292v0.47l1.174 0.235 10.569-1.057 0.587 0.587 0.705 1.292-0.117 0.587-0.47 0.47-1.996 1.057-0.822 0.939 0.352 0.822 0.705 0.705 1.527 1.057 0.705 0.939 0.352 0.939 0.47 3.288-0.47 1.292-1.996 1.879-0.705 0.939 0.587 0.47h1.174l2.466-0.47h1.292l0.939 0.47 0.117 0.705v0.822l-0.47 1.409-2.114 4.932-0.47 1.292-0.587 2.818-0.939 2.701-0.47 2.114-0.117 1.527 0.352 3.523 0.47 1.644 0.352 0.587 1.996 1.761 1.527 2.466 0.939 0.939 0.587 0.235 0.939 0.117 1.057-0.235 1.996-1.174 0.822-0.705 1.057-1.292 0.587-0.352 0.705-0.117 0.705 0.47 1.174 0.939 0.705 0.117 0.822-0.352 1.057-1.057 0.352-0.822-0.117-0.822 0.47-0.47 1.057-0.47 2.936 0.117 1.292 0.352 0.939 0.587 0.47 0.587 1.292 1.409 0.587 0.47 1.292 0.587 0.705-0.117 0.939-0.352 1.057-1.057 1.174-1.527 0.939-0.587 4.815-1.761 1.409-0.822 0.822-0.822 0.235-2.349 0.352-0.47 0.939-0.352 3.993-0.352 1.409-0.352 1.292-0.822 0.47-0.822 0.587-1.409 1.761-6.106 0.47-1.174 0.822-0.587 1.292-0.352h5.872l1.292 0.117 0.939 1.879 1.879 0.705 4.58 0.117 6.341 2.701 2.231 0.117-0.47 1.644-0.235 1.644-0.117 2.701 0.822 0.352 1.644 0.235 0.939 0.939 0.587 1.527 0.822 0.939 0.822 0.117 3.288-0.352 1.174 0.117 0.822 0.235 1.174 0.705 1.292 0.47 0.822 0.117 13.27-3.523 1.996-1.527 0.822-1.644 0.939-0.587 1.527-0.587 3.523-0.705h2.818l1.174 0.705 0.47 0.587 0.47 1.527 0.47 0.587 0.939 0.939 0.939-0.117 1.174-0.47 1.879-1.292 1.409-0.587 1.527 0.117 1.644 0.47 9.042-1.644 1.174 0.117 0.235 0.587 0.235 1.527 0.352 1.527 0.822 1.174 0.47 0.47 1.292 0.47 0.705 0.117 10.334-1.174 0.822-0.47 0.47-1.527 0.352-2.583 0.117-0.587 0.47-0.822 1.761-2.231 0.352-1.996 0.117-2.231 0.352-1.292 0.587-0.47 0.939-0.47 1.761-0.352 0.939-0.587 0.705-0.822 0.235-0.822 0.587-0.939 0.939-0.939 2.114-1.644 0.587-0.939 0.117-0.939-0.587-1.409v-0.822l0.117-1.527 0.705-1.996-0.117-1.409-0.705-1.174-1.409-1.409-0.47-1.057 0.117-0.587 0.822-1.057 0.822-0.352 0.939-0.117 5.284 1.292h0.822l0.822-0.235 1.057-0.705 0.587-0.705 1.057-1.761 0.822-1.057 1.409-1.527 0.939-0.235 0.587 0.705 0.705 1.527 0.352 0.587 1.057 0.939h0.705l0.822-0.117 0.939-0.705 1.292-1.879 0.587-0.47 3.053 0.235 7.985 2.114zM984.191 591.501l3.64-1.174 1.996-4.228 2.936-10.804 1.527-2.583 1.527-1.644 1.292-1.879 0.939-3.406 0.822-12.33 1.292-5.989 1.879-3.171 19.141-15.266 3.171-2.583 2.936-1.409 6.459-1.644 10.217-5.754 3.875-0.822 3.406-0.117 1.292-0.705 1.409-1.644 0.939-2.349 0.822-3.053 1.057-2.466 1.527-0.587 3.053 2.114 0.705 0.235 1.057-0.822 0.117-0.705v-0.939l2.818-11.039-0.587-1.644-0.235-1.527-0.117-1.527-0.117-1.644-1.409-4.58-1.996-11.978-2.114-5.284-4.815-7.868-1.057-5.167h5.167l10.569-3.64 25.835 6.811 2.701-0.587 7.281-5.284 15.383-4.345 4.345-3.171 3.875-5.284 1.761-1.174 6.106 0.352 2.466-0.47 2.466-1.409 2.231-3.053 0.939-1.527 0.235-1.644-0.235-1.527-0.939-1.527-9.042-4.697-0.939-0.822-0.117-1.644 0.352-3.64 1.292-5.754 2.231-4.228 2.936-3.171 3.288-2.231 6.224-2.936 2.818-2.114 1.996-3.758 0.822-1.409 0.939-0.352 0.939 0.47 1.057 1.174 2.114 0.352 2.114-0.235 1.879-1.057-0.352-1.761-0.705-2.114 0.587-2.231 1.409-0.47 3.758 1.292h1.527l2.231-4.697-1.879-15.031 1.644-6.459-2.466-1.879-1.879 0.235-1.879 0.939-2.114 0.47-8.572-1.879 0.47-0.705 1.057-1.879 0.47-0.822-3.288-1.879-3.875-0.822-3.875 0.47-3.171 1.644-3.053-0.939-0.939-2.466 1.057-2.231 2.818-0.587-1.174-3.993-1.761-3.875-3.875-6.576-2.231-2.349-1.996-1.057-4.462-1.527-3.993-3.64-3.053-4.462-3.406-3.288-6.341 0.235-0.705-0.822-0.117-1.057-0.352-0.822 0.117-1.527-0.235-0.939-0.587-0.587-1.527 0.352-4.345-0.587-3.171-2.466-1.174-0.705-4.228 0.235-8.925 3.64-3.64-0.352-3.171-1.644-2.936-0.352-2.936 0.705-6.341 3.758-1.527 0.352-4.345-0.352-1.292 0.47-1.996 3.171-1.292 8.455-1.644 3.523-2.231 1.174-5.402 0.117-2.349 0.47-7.516 2.936-2.466 0.235-2.466-0.705-4.58-2.583-2.936-0.117-5.989 1.174h-5.754l-4.697-3.64-2.231-9.864 0.117-2.818-7.985-2.114-3.053-0.235-0.587 0.47-1.292 1.879-0.939 0.705-0.822 0.117h-0.705l-1.057-0.939-0.352-0.587-0.705-1.527-0.587-0.705-0.939 0.235-1.409 1.527-0.822 1.057-1.057 1.761-0.587 0.705-1.057 0.705-0.822 0.235h-0.822l-5.284-1.292-0.939 0.117-0.822 0.352-0.822 1.057-0.117 0.587 0.47 1.057 1.409 1.409 0.705 1.174 0.117 1.409-0.705 1.996-0.117 1.527v0.822l0.587 1.409-0.117 0.939-0.587 0.939-2.114 1.644-0.939 0.939-0.587 0.939-0.235 0.822-0.705 0.822-0.939 0.587-1.761 0.352-0.939 0.47-0.587 0.47-0.352 1.292-0.117 2.231-0.352 1.996-1.761 2.231-0.47 0.822-0.117 0.587-0.352 2.583-0.47 1.527-0.822 0.47-10.334 1.174-0.705-0.117-1.292-0.47-0.47-0.47-0.822-1.174-0.352-1.527-0.235-1.527-0.235-0.587-1.174-0.117-9.042 1.644-1.644-0.47-1.527-0.117-1.409 0.587-1.879 1.292-1.174 0.47-0.939 0.117-0.939-0.939-0.47-0.587-0.47-1.527-0.47-0.587-1.174-0.705h-2.818l-3.523 0.705-1.527 0.587-0.939 0.587-0.822 1.644-1.996 1.527-13.27 3.523-0.822-0.117-1.292-0.47-1.174-0.705-0.822-0.235-1.174-0.117-3.288 0.352-0.822-0.117-0.822-0.939-0.587-1.527-0.939-0.939-1.644-0.235-0.822-0.352 0.117-2.701 0.235-1.644 0.47-1.644-2.231-0.117-6.341-2.701-4.58-0.117-1.879-0.705-0.939-1.879-1.292-0.117h-5.872l-1.292 0.352-0.822 0.587-0.47 1.174-1.761 6.106-0.587 1.409-0.47 0.822-1.292 0.822-1.409 0.352-3.993 0.352-0.939 0.352-0.352 0.47-0.235 2.349-0.822 0.822-1.409 0.822-4.815 1.761-0.939 0.587-1.174 1.527-1.057 1.057-0.939 0.352-0.705 0.117-1.292-0.587-0.587-0.47-1.292-1.409-0.47-0.587-0.939-0.587-1.292-0.352-2.936-0.117-1.057 0.47-0.47 0.47 0.117 0.822-0.352 0.822-1.057 1.057-0.822 0.352-0.705-0.117-1.174-0.939-0.705-0.47-0.705 0.117-0.587 0.352-1.057 1.292-0.822 0.705-1.996 1.174-1.057 0.235-0.939-0.117-0.587-0.235-0.939-0.939-1.527-2.466-1.996-1.761-0.352-0.587-0.47-1.644-0.352-3.523 0.117-1.527 0.47-2.114 0.939-2.701 0.587-2.818 0.47-1.292 2.114-4.932 0.47-1.409v-0.822l-0.117-0.705-0.939-0.47h-1.292l-2.466 0.47h-1.174l-0.587-0.47 0.705-0.939 1.996-1.879 0.47-1.292-0.47-3.288-0.352-0.939-0.705-0.939-1.527-1.057-0.705-0.705-0.352-0.822 0.822-0.939 1.996-1.057 0.47-0.47 0.117-0.587-0.705-1.292-0.587-0.587-10.569 1.057-1.174-0.235v-0.47l1.409-1.292 0.47-0.47-0.117-0.705-0.587-0.822-3.758-1.761-0.47-0.822 0.235-1.292 0.822-2.818 0.235-0.587 0.587-0.352 1.292-0.352 0.47-0.352 0.47-1.292 0.117-1.527v-0.822l-0.587-1.292-2.466-3.406-0.352-0.587v-0.587l0.47-0.352 3.523-2.349 0.939-0.939 0.939-1.057 1.409-1.292 5.050-2.818 0.705-1.057-0.117-1.057-1.527-3.053-1.174-1.527-1.409-0.822-1.057-0.235h-0.939l-1.409 0.705-1.527 1.292-0.822 0.352-1.174 0.235-13.035 0.235-2.583-0.705-0.705-0.352-0.587-0.47-0.822-1.644-1.057-0.822-4.58-2.701h-0.939l-0.587 0.352-0.352 0.47-1.527 3.053-0.705 0.47-0.939 0.47-1.761 0.47-0.939-0.117-0.822-0.352-0.352-0.47-0.117-0.587 0.235-0.47 0.939-0.939 0.352-0.587 0.117-0.705-0.352-0.822-0.587-0.705-4.697-1.996-0.705 0.117-0.352 0.352v0.705l0.235 1.644v1.057l-0.47 0.352-11.978 3.64-5.167 0.352-1.527-0.117-1.057-0.235-0.587-0.47-0.939-1.057-2.818-4.815-1.644-2.349-0.587-0.47-2.466-1.174-0.705-0.587-0.47-0.705-0.47-1.879-0.705-1.174-0.822-0.352-12.213-0.352-1.174-0.352-0.47-0.587-0.117-0.822 0.117-8.22-0.117-2.583-0.352-1.527-0.705-1.292-17.262-5.519-2.231-1.292-0.939-0.822-0.117-0.939 0.352-0.705 1.057-0.705 3.053-0.939 1.057-0.939 0.117-0.587-0.117-1.527-0.352-0.822-0.587-0.822-0.822-0.822-1.057-0.352-3.053 0.117-1.057-0.117-0.705-0.47-1.174-1.409-1.057-1.057-0.939-0.352-5.872-0.117-1.174-0.47-0.939-0.587-0.939-0.822-0.822-0.352h-0.822l-3.406 0.939-1.761 0.117-0.939-0.352-0.705-0.47-1.527-1.527-0.822-0.352-0.939-0.117-5.989 0.939-7.75-0.705-7.046 6.694-12.095 7.633-1.761 1.761-0.822 1.174 14.444 14.679 2.583 4.228 0.939 1.996 0.117 0.822 0.705 3.523 0.235 0.705 0.587 1.409 3.523 3.993 0.939 1.409 0.47 1.409 0.117 0.939-0.235 0.705-0.47 0.587-3.523 2.466-0.587 0.587v0.705l0.235 0.587 1.057 1.761 1.057 1.879 2.114 5.872 0.352 0.587 0.939 0.352 3.993-0.47 0.587 0.117-0.235 1.057-0.587 1.057-0.587 1.409-0.47 2.349 0.117 1.644 1.174 5.167 0.117 1.292v0.939l-2.583 6.694-0.235 0.939-0.235 1.409 0.352 0.939 1.409 1.761v0.587l-0.47 0.587-0.587 0.352-0.705 0.117-2.231-0.235-1.292-0.587-1.527-1.292-1.174-0.587-4.58-0.47-0.939 1.057-0.939 1.996-1.174 5.519-0.939 2.231-0.939 1.174-4.345 0.587-0.705-0.117-0.47-0.352-0.705-1.292-0.705-2.349-0.705-0.939-0.587 0.117-3.64 2.114-1.527 0.47-4.345 0.587-0.939 0.352-0.822 0.587-2.349 4.11-0.939 0.939-0.705 0.47-2.701 1.174-5.050 1.292-1.057 0.587-0.47 1.174-0.822 3.288-0.352 0.939-1.879 3.64v0.939l0.352 0.587 3.64 1.879 1.292 0.352 2.349 0.235 0.822-0.117 1.879-0.939 1.174-0.822 0.939-0.939 3.171-4.228 0.47-0.235 0.587 0.117 0.587 0.822 1.527 0.352 14.327-0.939 0.705 0.117 0.587 0.352 0.352 0.587 0.939 2.114 0.47 0.47 0.587 0.235 6.106 0.822 0.705 0.352 0.587 0.587 0.587 1.174 0.117 0.822-0.235 0.705-1.057 1.761-0.705 1.879-0.705 0.939-0.705 0.587-6.576 2.583-0.705 0.47-0.587 0.822-0.117 0.705 0.117 0.822 0.47 1.292 3.288 3.523 0.352 0.587 0.587 1.527 0.235 1.292 0.235 6.341-0.352 4.58v3.288l1.292 2.466 1.409 2.349 1.292 1.761 1.879 1.879 1.174 0.705 1.527 0.117h1.644l2.466-0.587 0.705-0.117 0.587 0.235 1.292 1.527 0.587 0.352 4.11 1.409 1.292 1.057 0.117 0.587-0.235 0.587-0.822 0.235-1.761 0.47-0.822 0.47 0.47 0.705 5.050 1.174 0.587 0.352 0.587 0.47 0.47 0.822 0.587 1.292 0.117 0.939v0.822l-0.939 2.583-0.235 1.644v1.057l0.352 0.822 0.822 1.292 0.822 0.587 0.822 0.235 0.822-0.117 1.292-0.587 2.349-1.644 2.701-1.292 11.156-2.114 1.409 0.47 1.527 1.174 0.705 0.235 1.527-0.117 1.292-0.822 0.822-1.057 0.587-1.057 0.47-0.352h0.47l1.644 1.761 0.47 0.352h0.705l0.47-0.352 0.235-0.587 0.117-0.822-0.117-0.822-0.47-0.939-0.705-1.174-0.235-0.822 0.117-0.705 1.527-2.114 2.231-5.050 0.822-0.939 0.822-0.117 4.345-0.352 0.705 0.117 0.822 0.352v1.174l-0.939 3.64v1.761l0.235 1.174-0.117 1.996-0.235 1.761 1.057 0.705 11.039 0.939 0.822 0.352 0.822 0.587 1.057 1.174 0.47 1.057 0.235 0.939-0.235 1.409-1.174 2.701-0.235 0.822v1.409l0.235 0.822 0.352 0.705 4.815 4.932 1.057 0.705 1.292 0.352 1.996-0.705 2.349-0.47 0.587-0.352 0.939-1.057 1.057-0.822 1.527-0.47h0.822l1.409 0.352 9.512 5.167 1.996 1.761 1.174 1.527 1.527 2.466 0.939 1.292 1.057 0.822 1.409 0.235 0.705-0.235 0.939-0.822 1.174-1.761 0.705-0.352h0.705l0.822 0.47 0.47 0.939 0.352 1.409 0.47 0.705 0.587 0.47 1.527 0.705 0.939 0.822 0.352 0.705-0.117 0.587-0.47 0.47-1.644 0.352-1.409 0.822-0.352 0.587-0.117 0.939 0.352 0.705 0.47 0.47 3.875 1.644 1.761 1.057 1.527 1.644 1.409 1.879 0.47 1.057 0.235 0.939-0.47 0.352-2.231 0.47-0.587 0.352-0.939 1.057-1.174 0.587h-0.705l-1.996-0.47-0.705 0.117-0.587 0.352-0.822 1.057-0.47 0.47-0.705 0.235-2.466 0.235-0.705 0.117-0.352 0.352 0.705 0.822 2.701 1.409 0.939 0.822 0.47 0.822 0.235 0.939-0.235 1.292-0.587 0.235-0.47-0.117-2.349-1.409-0.705-0.117-0.587 0.117-0.47 0.705 0.117 0.705 0.352 0.47 1.057 1.057 1.644 1.996 0.235 0.822-0.352 0.587-2.701 1.409-0.587 0.587-0.117 1.292 0.352 0.939 0.822 1.292 0.117 0.705-0.47 1.174-0.235 0.822 0.235 3.171v4.932l-0.235 1.644-0.352 1.409-0.939 1.761-0.705 1.174-0.587 1.527 0.117 2.114 0.235 0.705 1.174 2.466 0.939 1.057 1.761 1.057 1.057 0.822 1.174 1.761 2.349 2.349 0.939 1.292 0.47 0.939 0.117 0.939-0.117 0.822-0.235 1.409-0.705 1.174-0.939 1.057-0.47 0.587-0.117 1.057 0.117 0.705 0.47 0.587 1.527 0.587 0.822 0.47 0.235 0.705 0.235 0.822v7.75l-0.235 3.523 0.235 0.705 0.47 0.47 2.583 1.527 0.939 0.939 0.117 0.705-0.235 0.587-0.939 0.939-0.117 0.705-0.117 2.583-0.235 0.587-0.587 0.47-2.466 0.705-0.587 0.47-0.352 0.47-0.235 1.996 4.815 3.406 1.527 1.761 0.352 0.705 1.174 3.288 0.587 0.705 0.705 0.352 2.231 0.352 3.406 1.057 0.47 0.705 0.822 2.349 1.057 2.114 0.939 0.822 0.822 0.47h1.761l1.644-0.352 7.163-3.171 1.761-0.235 3.523 0.822 1.879-0.235 10.921 1.761 2.818 0.939 0.939 0.939 0.117 0.47-0.352 0.47-1.644 1.174-0.352 0.587 0.117 0.822 0.705 1.057 0.705 0.352h0.822l4.697-1.527 0.705-0.352 0.352-0.587 0.117-0.705-0.235-1.409 0.117-0.705 0.235-0.587 1.644-1.292 0.352-0.47 0.117-0.705-0.235-1.292v-0.587l0.939-0.47 1.409-0.352 4.815-0.235 0.939-0.352 0.235-0.705-0.235-1.527 0.705-0.705 1.409-0.47 3.64-0.117 1.644 0.117 1.057 0.47 0.47 0.587 0.47 1.527-0.117 1.527-0.822 1.879-0.705 2.114-0.47 3.053 0.235 0.822 0.587 0.822 4.11 2.583 0.939 0.939 0.705 1.409 0.587 1.996 0.352 0.822 0.822 1.057 0.822 0.352h0.939l1.174-0.705 0.117-0.47-0.235-0.587-0.939-0.822-0.117-0.587 0.235-0.47 4.462-2.701 1.527-1.644 0.939-0.47 0.822 0.117 0.587 0.235 0.47 0.587 0.235 0.822 0.235 1.879 0.352 1.057 0.587 0.235 2.818-0.705 2.349-0.117 1.292 0.235 0.939 0.235 5.872 4.228 0.822 0.117 0.47-0.352-0.235-0.587-1.292-2.818-0.822-2.231-0.822-1.292-3.053-3.758-0.587-1.174 0.47-1.292 0.939-0.705 6.928-1.527 2.114 0.117 2.583 1.174 3.288 2.231 0.939 1.174 0.235 0.587 0.235 2.349 0.705 0.939 0.705 0.235 0.705-0.117 1.057-0.939 0.705-1.174 1.879-4.228 0.235-0.352 1.761-1.879 2.114-1.879 1.761-0.939 1.879-0.47h1.057l0.822 0.235 3.875 1.879 1.527 1.292 0.939 0.939 0.705 1.409 0.939 3.288 0.822 1.174 1.644 1.292 0.705 1.174-0.117 0.587-0.235 0.587-2.583 2.466-0.352 0.587-0.235 0.587v0.822l0.352 0.705 0.705 0.705 1.174 0.587 5.402 1.644 0.587 0.587 0.47 0.587 0.235 1.644 0.47 0.822 0.822 0.705 2.231 1.174 1.292 0.47 1.174 0.117 0.705-0.235 4.815-2.349 6.224-1.174 8.22-0.235 2.583 0.352 1.174 0.587 0.235 0.587 0.117 0.705-0.352 1.292v0.822l0.47 0.822 1.292 1.174 1.292 0.352 1.057 0.117 0.705-0.235 3.171-2.114 4.345-1.292 2.466-1.527 1.174-0.939 0.822-0.352 1.174-0.235 0.587 0.235 0.352 0.587-0.117 1.409-0.587 2.114-0.117 0.587 0.117 0.705 0.587 0.587 1.057 0.47 3.171 0.939 0.822 0.352 2.701 2.349 0.939 0.352h1.174l2.701-0.47h1.996l0.705 0.352zM984.191 591.501l-0.705-0.352h-1.996l-2.701 0.47h-1.174l-0.939-0.352-2.701-2.349-0.822-0.352-3.171-0.939-1.057-0.47-0.587-0.587-0.117-0.705 0.117-0.587 0.587-2.114 0.117-1.409-0.352-0.587-0.587-0.235-1.174 0.235-0.822 0.352-1.174 0.939-2.466 1.527-4.345 1.292-3.171 2.114-0.705 0.235-1.057-0.117-1.292-0.352-1.292-1.174-0.47-0.822v-0.822l0.352-1.292-0.117-0.705-0.235-0.587-1.174-0.587-2.583-0.352-8.22 0.235-6.224 1.174-4.815 2.349-0.705 0.235-1.174-0.117-1.292-0.47-2.231-1.174-0.822-0.705-0.47-0.822-0.235-1.644-0.47-0.587-0.587-0.587-5.402-1.644-1.174-0.587-0.705-0.705-0.352-0.705v-0.822l0.235-0.587 0.352-0.587 2.583-2.466 0.235-0.587 0.117-0.587-0.705-1.174-1.644-1.292-0.822-1.174-0.939-3.288-0.705-1.409-0.939-0.939-1.527-1.292-3.875-1.879-0.822-0.235h-1.057l-1.879 0.47-1.761 0.939-2.114 1.879-1.761 1.879-0.235 0.352-1.879 4.228-0.705 1.174-1.057 0.939-0.705 0.117-0.705-0.235-0.705-0.939-0.235-2.349-0.235-0.587-0.939-1.174-3.288-2.231-2.583-1.174-2.114-0.117-6.928 1.527-0.939 0.705-0.47 1.292 0.587 1.174 3.053 3.758 0.822 1.292 0.822 2.231 1.292 2.818 0.235 0.587-0.47 0.352-0.822-0.117-5.872-4.228-0.939-0.235-1.292-0.235-2.349 0.117-2.818 0.705-0.587-0.235-0.352-1.057-0.235-1.879-0.235-0.822-0.47-0.587-0.587-0.235-0.822-0.117-0.939 0.47-1.527 1.644-4.462 2.701-0.235 0.47 0.117 0.587 0.939 0.822 0.235 0.587-0.117 0.47-1.174 0.705h-0.939l-0.822-0.352-0.822-1.057-0.352-0.822-0.587-1.996-0.705-1.409-0.939-0.939-4.11-2.583-0.587-0.822-0.235-0.822 0.47-3.053 0.705-2.114 0.822-1.879 0.117-1.527-0.47-1.527-0.47-0.587-1.057-0.47-1.644-0.117-3.64 0.117-1.409 0.47-0.705 0.705 0.235 1.527-0.235 0.705-0.939 0.352-4.815 0.235-1.409 0.352-0.939 0.47v0.587l0.235 1.292-0.117 0.705-0.352 0.47-1.644 1.292-0.235 0.587-0.117 0.705 0.235 1.409-0.117 0.705-0.352 0.587-0.705 0.352-4.697 1.527h-0.822l-0.705-0.352-0.705-1.057-0.117-0.822 0.352-0.587 1.644-1.174 0.352-0.47-0.117-0.47-0.939-0.939-2.818-0.939-10.921-1.761-1.879 0.235-3.523-0.822-1.761 0.235-7.163 3.171-1.644 0.352h-1.761l-0.822-0.47-0.939-0.822-1.057-2.114-0.822-2.349-0.47-0.705-3.406-1.057-2.231-0.352-0.705-0.352-0.587-0.705-1.174-3.288-0.352-0.705-1.527-1.761-4.815-3.406-3.875-1.292h-0.822l-0.939 0.352-1.292 1.761-0.235 0.939-0.117 0.939 0.352 4.462 0.352 1.527 0.705 1.174 3.64 3.171 0.587 0.587 0.47 0.822 0.47 1.292 0.117 0.939-0.235 0.705-2.466 3.993-1.409 1.292-1.174 1.174 0.117 0.705 0.822 0.822 0.47 0.705 0.47 0.939 0.352 1.527 0.352 0.822 0.587 0.587 0.705 0.117 0.822 2.231 0.822 3.875 1.527 17.615 1.057 2.114 1.292 1.644 0.939 1.527 0.587 1.292v0.939l-0.235 0.822-1.761 2.231-0.352 0.822v0.705l0.235 0.705 1.879 2.114 4.11 3.758 0.47 0.822v1.174l-0.822 4.58-0.705 1.174-0.705 0.822-1.644 0.47-0.705-0.117-0.352-0.352-0.117-0.705 0.117-2.466-0.235-1.761-0.822-1.292-1.174-0.705h-0.705l-3.523 0.705-2.936 1.174-1.644 0.235h-0.822l-1.292-0.587-1.174-0.705-3.171-2.583-0.587-0.235-0.705 0.117-2.583 1.409-1.409 0.235-4.11 0.117-0.587 0.235-0.235 1.409 0.117 1.879v1.409l-0.235 1.879-0.705 3.523-0.705 1.409-0.939 0.705-1.409-0.352-2.583-1.174-2.818-0.822-0.705-0.117-0.822 0.235-0.705 0.587-0.235 0.705 0.117 0.587 0.352 0.587 1.057 1.057 0.235 0.47-0.939 0.235-2.701-1.057-2.466-1.292-0.939-1.057-1.761-3.406-0.47-0.47-1.057-0.705-2.231-0.587h-3.406l-15.853 2.936-0.705-0.117-0.47-0.352-0.352-0.705-0.47-2.349-0.47-1.527 0.352-1.292 2.114-2.701 0.235-0.587-0.352-1.292-1.174-1.996-0.939-1.057-1.409-0.352-1.644-0.235-1.174 0.117-0.47 0.705v1.761l-0.47 1.996-0.705 0.352-0.822 0.235-5.402 0.705h-0.822l-0.587-0.352-1.409-1.527-1.057-0.822-0.705-0.117h-0.705l-7.398 2.701-0.822 0.822-0.587 0.705-0.587 2.114-0.117 1.644 0.352 1.644 1.761 3.288v1.057l-0.235 1.292-1.527 2.466-0.939 0.822-0.705 0.235-0.47-0.47-2.583-3.406-1.174-0.822-0.939-0.117-0.47 0.352-0.235 0.705-0.352 1.409-0.587 1.644-0.587 1.057-0.587 0.235h-0.705l-9.747-3.053-0.587-0.352-0.822-1.292-1.174-3.993-0.939-2.231-0.235-0.822-3.758-10.804-0.47-0.705-1.174-0.352-2.231 0.117-4.697 2.466-0.939 0.822-0.47 1.292-0.47 1.644-0.705 1.057-1.409 1.527-4.228 2.466-0.939 1.057-0.822 1.057-0.939 1.879-0.705 1.644-0.705 1.174-1.644 1.879-0.822 0.705-0.939 0.352-3.406 0.352-5.989-1.174-2.701-1.057-2.701-1.996-0.47-0.47-0.939-0.352-1.057-0.235-5.637 1.527-0.822 0.117-13.387-4.11-1.879-0.235-0.47 0.587-0.352 0.587-0.117 2.701v0.939l-0.47 0.939-0.587 0.587-1.527 0.587-0.822 0.117h-0.705l-0.587-0.352-2.114-2.818-0.47-0.47-1.409-0.235-2.114 0.117-7.046 2.114-0.822 0.822-0.352 0.939-0.822 1.292-2.936 2.583-1.057 1.174-0.47 1.174-0.117 0.939-0.47 1.174-1.761 1.996-0.705 1.174-0.117 1.057 0.587 1.292 0.587 1.527 0.47 1.644 0.117 1.761-0.705 1.057-1.292 1.292-6.341 4.11-11.861 1.996-0.939 0.587-0.235 0.822 0.117 0.822 0.822 3.406-0.235 1.527-0.47 0.587-9.512 8.103-0.352 0.47-0.705 1.409-1.174 1.527-1.174 1.174-0.939 0.47-0.939 0.117-6.576-0.705-2.466 0.235-0.705 0.47-0.352 0.705-0.235 3.288-0.47 1.409-0.587 1.292-2.231 3.523-1.057 1.174-3.171 2.583-0.352 0.705-0.117 0.587 0.235 0.587 3.288 4.815 0.352 1.409-0.352 0.939-0.705 1.057-1.644 1.527-1.174 0.587-0.939 0.235-6.694-1.644-8.807 2.466-1.174 0.117-3.875-3.053-0.235-0.587 0.117-1.409 0.587-2.231 0.117-1.527-0.117-0.705-0.352-0.705-0.587-0.235-1.409-0.47-9.277-0.587-4.815 0.47-0.939 0.47-0.587 0.47-0.822 1.409-1.527 2.231-0.939 0.47-0.939 0.235-12.565-2.114-1.292-0.47-3.758-3.171-1.527-0.705-1.409-0.235-0.705 0.235-0.587 0.47-0.705 1.527-0.705 0.939-1.409 1.409-0.939 0.705-1.057 0.352-3.758 0.235-2.818-0.235-1.057-0.235-0.352-0.235-0.47-1.057-0.705-0.939-1.057-0.822-1.292-0.47-1.761-0.117-1.174 0.47-1.057 0.587-1.174 1.057-1.057 0.47-6.694-0.47-3.523 0.587-2.583 0.939-4.58 2.466-1.292 0.352-0.822-0.117-0.822-0.47-0.587-0.705-0.352-1.057v-1.057l0.117-0.939 0.352-1.409-0.117-0.587-0.822-1.057-1.292-0.939-1.761 1.292-1.409-0.235-1.057-0.587-2.701-2.701-0.822-0.587-0.822-0.235-1.057 0.352-0.822 0.822-1.057 2.466-0.705 3.875v1.174l-1.057 1.057-0.705 0.587-7.398 2.936-0.352 0.47 2.114 3.288 4.462 9.864 0.587 1.879 0.235 2.583-0.117 5.284 0.352 2.466 3.875 6.106 5.519 0.939 13.622-3.523h1.057l1.174 0.352 0.705 0.939 0.822 1.174 0.939 1.057 1.761 0.235 13.035-5.872 2.701 0.587 1.879 3.053 1.292 6.224 0.822 5.989 0.939 2.349 1.879 2.701 3.523 3.406 1.879 1.174 7.868 2.114 3.053 2.231 1.292 3.523-1.057 3.64-2.818 2.114-20.433 3.64-7.398-1.996-1.996 0.117-7.398 2.701-1.879 1.292-0.587 2.349 1.174 3.993 2.936 5.402 0.822 2.114 1.644 7.985 1.057 2.466 4.345 4.345 0.47 2.583-2.349 4.462 0.587 5.284 2.349 3.993 3.053 3.406 2.349 3.758 1.174 4.815 0.352 5.754-0.47 5.872-1.174 5.167 2.583 4.58 2.936 1.644 3.288-0.352 6.576-2.701 2.818 0.235 9.747 5.050 2.466 2.936 7.046 12.917 7.046 8.69 2.936 1.879 15.853 1.996 5.050-0.822 2.583-1.527 7.633-6.459 3.406-1.879 2.349 0.939 5.754 5.637 2.583 3.053 3.053-3.64 3.758-2.231 4.11-1.292 15.383-1.409 3.523 0.47 1.057 3.288 1.057 4.697 0.822 10.451 3.406 9.629 12.213 8.103 3.993 7.163 0.47 5.284 3.875 3.993 8.338 6.459 1.527 2.936 1.057 2.701 1.174 2.349 1.996 1.996 1.527 0.822 5.050 1.057 5.284 2.583 5.402 3.993 5.284 1.996 4.697-3.171 2.466-3.758 8.455-9.394 3.758-5.402 2.583-2.583 2.583-0.822 2.701 1.644 4.11 6.341 2.818 2.114 18.202 1.996 6.928-1.174 2.114-0.822 1.057-1.174 1.996-3.875 4.345-6.106 1.057-2.231 1.174-5.167 0.587-5.284 1.409-4.462 3.171-2.818 9.394-2.701 2.701 0.705 0.235 5.050 3.288 3.406 7.633 3.523 7.281 4.697 6.106 2.349 7.046-0.235 6.928-2.466 5.872-4.345 3.875-3.053 18.789-5.402 2.231-1.292 2.114-2.114 2.231-3.053 1.174-1.996 0.47-1.761-0.47-1.409-0.822-0.235-1.057 0.117-0.939-0.47-1.174-0.939-1.057-0.352-0.939-0.822-0.939-1.879-0.47-1.879-0.587-5.284-0.47-2.349-2.936-7.281-0.47-3.523 0.822-4.58 1.527-3.171 6.106-5.167 5.872-8.807 2.466-1.292 3.288 0.939 9.512 11.391 12.095 7.163 3.288 0.705 8.455-2.231 3.171 1.644 4.815 9.042 3.053 3.875 4.697 2.818 4.932 1.057 4.932-0.235 14.444-5.519 3.171 1.174 5.519 5.284 2.818 1.409 2.231-0.587 4.11-3.758 2.349-1.527 24.308-8.22 1.057-1.174v-1.879l-0.705-1.761-0.352-1.879 1.409-1.879 10.921-5.284 1.292-1.057 0.939-1.409 0.47-2.818-0.352-1.879-0.587-1.761v-2.114l1.527-3.053 2.466-1.644 2.818-0.705 4.932 0.47 1.761-0.939 1.174-2.114 1.174-3.406 3.523-7.046 3.523-0.587 4.11 2.349 5.402 1.879 4.697-2.231 3.288-6.341 0.822-7.985-2.466-7.75 1.761-1.174 0.705-0.235-0.822-2.818-3.171-2.466-0.705-3.64 0.939-3.875 1.996-2.701 1.644-2.818-0.117-4.345-1.409-2.583-7.398-5.284-4.228-6.106-1.761-3.993-0.352-4.11 1.174-2.701 2.114-1.879 4.345-2.349 1.644-2.466 1.996-7.985 1.761-2.701 5.754-4.462 1.527-1.879 0.117-0.822-0.47-1.996 0.235-1.057 0.352-0.352 1.292-0.47 0.352-0.235 0.47-1.174 0.587-0.705 0.235-1.057-0.587-2.231-1.057-1.527-0.235-1.527 0.352-1.644 0.939-1.527 1.644-4.228 1.409-5.284v-4.11l-3.053-0.939-5.872 1.527-2.466-0.235-0.822-2.583 1.292-3.523 1.761-2.349 0.587-2.583-2.349-4.11-2.114-1.644-7.516-1.527-2.936-2.349 0.352-2.231 1.292-3.171-0.235-5.402-1.879-3.406-2.818-2.936-2.349-3.758-0.705-5.989 0.939-3.406 1.879-1.409 5.050-1.761 18.906-13.857 1.761-3.406 0.47-3.875 2.701 0.47 10.334-1.174 2.818-5.872 4.815-3.993-3.523-8.22-6.106-9.982-3.053-9.16 3.64-2.701 9.042-2.701 1.409-2.818zM391.516 695.545l-0.939-1.174-2.231-1.174-0.47-0.352-0.235-0.705 0.117-0.822 1.527-2.818 0.939-2.349 0.235-1.879-0.235-4.345v-1.409l0.822-1.761 0.822-1.292 1.174-1.292 1.292-1.174 1.527-0.939 1.409-0.705 1.174-0.352 1.879-0.235 0.705-0.352 2.701-3.288 6.576-10.217 0.705-0.587 0.822-0.587 2.466-1.057 0.705-0.352 0.352-0.587 0.235-1.292 0.117-1.409-0.587-3.053-0.117-1.292 0.235-1.761 0.47-1.057 1.527-3.288 1.174-2.936 1.174-2.114 0.47-1.057 0.352-1.057 0.352-1.761 0.47-0.939 0.587-0.587 2.349-0.705 2.114-1.409 0.822-0.235 0.939 0.352 3.053 1.527h0.587l0.235-0.822v-1.644l-0.47-3.523 0.235-2.231 0.939-2.466v-0.822l-0.822-1.174-0.705-0.352h-0.822l-1.292 0.235-0.47-0.47-0.352-1.174-0.117-5.637-0.235-1.174-0.587-0.587-0.822 0.117-1.057 0.47-3.758 2.583h-0.822l-0.117-0.939 0.587-1.644 0.117-0.705v-2.114l0.352-1.174 0.587-1.057 1.174-1.996 0.47-1.527 0.235-1.996-0.235-3.288-0.235-2.114-0.822-1.409-0.587-0.705-2.231-1.644-0.822-1.292-1.409-4.932-7.633-20.316-2.349-5.050-1.409-2.349-4.815-5.050-1.292-1.761-0.939-0.822-0.705-0.352-13.622-2.583-5.872 1.174-1.644-0.117-2.114-0.587-7.163-6.341-0.587-0.352-1.409-0.235-3.523 0.352-0.587-0.235-0.822-1.057-1.996-5.989-1.174-5.167v-0.822l0.117-0.705 1.409-1.174 3.523-1.527 0.587-0.117 0.47 0.235 0.352 0.587 0.587 2.466 0.352 0.705 0.939 0.587 0.587-0.117 2.701-1.292 0.587-0.47 0.352-0.587-0.117-1.292-0.587-3.053-0.352-7.046v-1.761l0.235-1.292 0.587-1.409 1.292-2.701 1.057-0.939 0.939-0.352 7.75 1.174 1.174 0.705 0.235 0.705 0.117 0.822-0.117 1.292 0.587 0.587 0.822 0.117 5.402-0.705 0.822-0.352 0.47-1.409 1.292-6.694 0.939-1.644 0.705-0.822 7.398-0.235 0.587-1.057 0.117-1.996-0.587-4.697-0.587-1.879-0.587-1.174-4.462-1.057-0.587-0.352-0.822-1.057-0.705-1.292-1.292-3.758-0.587-1.409-0.705-1.174-1.527-1.409-1.174-0.822-1.292-0.587-8.338-2.583-2.349-1.409-0.822-1.057-0.235-1.057-0.117-1.409-0.117-3.875 0.117-1.174 0.822-0.939 1.409-1.057 8.455-3.523 0.939-1.057-0.587-1.879-0.822-1.292-0.47-0.47-0.705-0.352-2.583 0.117-0.822-0.117-0.47-0.939-0.235-1.527v-3.053l-0.352-2.818v-0.939l1.174-1.879 0.939-1.057 1.644-1.292 1.292-0.705 4.228-0.587 1.174-0.705 0.235-0.822 0.117-1.174-0.117-2.231v-1.527l0.117-1.409 0.587-1.527 0.705-0.822 0.705-0.47 7.75-2.349 5.050-2.818 0.939-1.057 0.587-1.174 0.47-1.761 0.352-3.523 0.235-0.822 0.47-1.292 1.879-2.936 0.587-1.057 0.939-2.466-0.117-1.292-0.47-1.761-1.644-3.758-0.352-2.231v-1.174l0.587-0.352 1.057-0.117 2.818 0.587h0.705l0.939-0.587 0.352-0.47 0.235-1.292v-2.231l-0.705-6.576v-1.644l0.235-1.527 0.822-2.818 0.587-1.174 0.705-1.174 0.822-1.057-1.057-0.705-22.429-7.516-9.512-2.583-3.171-0.235-0.705 0.235-2.583 1.292-3.053 0.939-10.451 0.587-6.576 1.644-2.701-0.235-2.583-0.705-17.38 1.527-1.174 0.587-1.292 1.527-0.587 0.47-0.939 0.117-1.292-0.117-1.996-0.47h-1.174l-0.822 0.117-1.644 1.292-1.292 0.47h-1.174l-3.875-0.939h-1.292l-1.644 0.47-1.644 0.235-0.822-0.352-1.057-0.705-1.409-1.761-0.705-1.057-1.292-2.936-3.523-6.106-0.587-1.761-0.235-1.409-0.705-6.106-0.47-1.527-0.587-0.47-0.822-0.47-3.64-0.352-0.822-0.47-0.705-1.174-0.352-0.939-0.822-3.288 0.117-0.822 0.705-1.057 2.349-1.527 0.822-1.057 0.117-1.527-0.117-0.705-0.587-0.939-1.057-0.822-1.996-1.527-2.583-2.349-0.822-1.409v-0.822l0.117-0.587 0.587-0.47 2.466-0.47 1.174-0.705 1.292-1.527 0.939-1.879 0.235-0.587 0.235-1.527-0.235-1.644-1.057-3.053-3.875-7.516-3.053-8.807-0.352-0.587-0.822-1.057-6.341-3.758-1.174-1.292-1.292-1.879-1.409-2.466-0.822-1.174-1.292-1.409-0.705-1.292-0.117-1.527-0.47-0.939-1.057-1.057-3.053-1.409-1.996-0.47-2.466 0.235-1.057 0.352-0.939 0.235-1.057-0.117-1.644-1.174-0.705-1.057-0.352-0.939 0.235-1.527 0.705-1.174 1.879-1.879 0.352-1.174-0.352-0.47-1.409-1.292-0.352-0.587v-0.705l0.352-1.409 0.352-0.587 0.47-0.47 1.996-0.822 0.352-0.587 0.235-0.705-0.235-1.527-0.352-0.587-0.939-0.822-0.822-0.235-0.939-0.117-1.879 0.47-1.996 0.822-1.057 0.705-0.705 1.174-0.235 1.527-0.235 0.587-1.057 0.235-1.527-0.235-2.701-1.057-1.996-1.644-0.352-0.47-0.587-0.352-0.939-0.117-1.057 0.117-1.879 0.47-1.409 0.117-1.409-0.235-4.932-1.879-1.057-0.939-0.705-0.47-0.939-0.117-1.527 0.47-0.822 0.587-0.47 0.705 0.235 1.527 0.235 0.822-0.117 1.409-0.705 1.057v0.705l0.235 1.527 1.644 5.989 0.117 0.705-0.235 0.47-0.47 0.352-0.705 0.117-0.705-0.117-0.822-0.822-0.47-0.705-1.292-2.701-0.587-0.47-0.822-0.235-1.527 0.235-5.167 2.114-0.587 0.822v0.705l0.47 2.231v1.527l-0.47 2.114-0.47 1.292-1.057 1.761-0.822 0.939-1.057 0.939-1.292 0.587-3.171 0.705-0.939-0.117-0.939-0.352-1.057-1.174-0.587-0.939-0.822-2.349-0.705-1.174-0.822-0.47-1.292-0.352h-3.993l-6.576 1.527-7.633 3.875-1.174-0.117-1.644-0.587-5.989-3.406-0.939-1.057-0.117-0.587 0.235-0.587 1.057-0.705 3.406-0.47 0.587-0.352 0.47-0.47 0.117-1.527-0.235-0.705-0.822-0.822-1.174-0.939-2.936-1.527-1.174-0.939-0.822-0.822-0.352-0.587-2.583-2.936-0.235-0.587v-0.587l0.352-0.47 1.292-1.409 0.587-1.292-0.117-1.527-0.235-0.587-2.701-1.996-0.705-1.057-0.939-2.936-0.939-1.761 0.117-1.292 1.057-1.644 0.47-1.292 0.352-1.527 0.117-1.644-0.117-0.705-0.352-1.057-0.235-0.47-1.409-0.939-2.818-0.822-2.936-0.235-3.171 0.587-2.701 1.409-0.705 0.47-0.939 1.057-5.519 3.875-0.587 0.352-0.939 0.235-1.174-0.117-3.053-0.939-1.879-1.292-0.587-0.235-0.587 0.117-0.587 0.705-0.235 0.705-0.235 1.292-0.235 0.352-0.705 0.117h-0.939l-5.167-1.879-1.292-0.117-5.167 0.939-1.527 0.587-0.939 0.587-0.705 1.174-0.939 1.761-0.47 0.47-0.822 0.117-1.174-0.117-2.701-1.761-3.758-3.171-1.174-0.705-1.292-0.47-16.323 1.292-2.231-0.47-0.939 24.661-0.352 1.527-0.47 1.057-0.47 1.174-0.117 2.231 0.352 1.644 1.409 2.701 0.352 1.292-0.117 1.644-0.939 5.637-0.117 1.292 0.352 2.466-0.235 1.527-1.409 3.053-3.64 4.815-1.057 3.406 0.117 3.993 1.174 2.818 1.527 2.466 1.057 2.936 0.235 5.050-1.292 2.466-1.996 1.644-2.231 2.349-1.527 3.171-0.939 2.936-1.174 2.936-2.231 2.936-2.114 5.872-4.932 19.494-2.466 6.459-5.754 12.095-10.451 32.059-2.936 14.444-0.235 12.8-3.053 4.345-1.292 4.345-1.057 11.039-1.292 5.167-1.644 4.815-1.174 5.050-0.235 6.106 4.228-1.057 11.039-6.694 2.114-0.705 1.879 0.117 6.106 2.583 7.633 1.057 2.114 1.644 1.879 0.705 0.939-0.117 2.114-1.292 1.057-0.352 0.939 0.117 9.394 5.402 1.879 0.352 1.879-0.705 3.64-2.349 1.996-0.47h7.868l3.64 1.057 7.516 4.11 4.11 0.705 3.875-1.292 3.406-4.228 2.114-5.989 1.292-1.996 2.349-0.47 4.228 0.235 3.875-1.174 4.345-0.117 4.462 2.349 14.092 12.565 6.106 3.64 7.868 1.527 2.936 2.231 0.47 0.117 0.939-0.352 1.527-4.11 1.879-1.761 2.231-0.235 7.868 1.292 2.231 1.174 1.644 3.64 0.235 5.754-1.174 3.993-1.644 3.523-1.409 4.462-0.587 3.288 0.235 0.705h0.705l1.174 1.409 2.231 1.409 0.117 0.822-0.235 1.409 0.117 1.644 0.47 1.292 4.228 2.583 5.637 0.587 5.637-0.822 9.747-3.758 5.402 0.939 5.402 3.406 5.050 5.637 1.996 4.462 2.466 9.864 1.644 2.701 2.114 0.352 7.868-2.701 9.982 0.47 3.053 1.996 4.932 7.281 3.053 1.527 1.527-0.352 0.822-0.822 0.587-1.174 8.69-11.861-1.057-0.822-2.818 0.235-2.583-1.409-0.235-2.114 2.936-1.644 0.705-1.761-0.939-1.527-3.523-1.292-0.822-1.409 0.822-3.758 2.818-2.701 3.288-1.644 10.921-1.761 2.701 0.117 1.292 0.705 1.879 2.701 1.409 0.587 4.58-0.587 1.409 0.235 2.818 2.114 1.057 3.288 0.117 9.629 0.352 0.939 1.409 1.996 0.352 0.939-0.352 1.174-0.587 0.47-0.705 0.235-0.47 0.705-0.822 2.349-0.939 1.879-1.174 1.527-1.174 1.292-0.47 0.235-1.409-0.47-0.587 0.117-0.47 0.705-1.292 3.758-0.352 1.996-0.705 1.761-1.644 1.057-1.879-0.587-7.281-3.875-5.402-0.352-2.583 1.057-1.761 2.701 0.235 5.284 2.231 4.58 5.637 6.811 2.231 4.58 0.47 4.11-0.117 4.345 0.587 5.519 1.292 4.345 1.879 2.466 7.516 4.462 2.349 2.466 1.761 3.288 0.587 4.228-0.705 4.11-3.053 7.516-0.822 4.228 0.117 2.583 0.587 2.114 0.587 1.996 0.47 2.231 0.235 2.231-0.352 10.804 0.352 2.936 1.292 1.879 2.701 2.349 1.174 0.705h0.822l0.587 0.352 0.587 1.761-0.117 1.761-1.057 4.345-0.117 1.879 1.292 3.993 2.466 2.583 2.818 2.231 2.583 2.936 0.705 2.231 0.235 1.879 0.47 1.644 1.409 1.292 4.697 1.996 2.231-0.117 4.462-1.057h2.231l14.914 3.053 4.462 2.583 1.761 1.996 2.114 3.171 0.352-0.47 7.398-2.936 0.705-0.587 1.057-1.057v-1.174l0.705-3.875 1.057-2.466 0.822-0.822 1.057-0.352 0.822 0.235 0.822 0.587 2.701 2.701 1.057 0.587 1.409 0.235 1.761-1.292zM767.765 544.763l0.235-1.996 0.352-0.47 0.587-0.47 2.466-0.705 0.587-0.47 0.235-0.587 0.117-2.583 0.117-0.705 0.939-0.939 0.235-0.587-0.117-0.705-0.939-0.939-2.583-1.527-0.47-0.47-0.235-0.705 0.235-3.523v-7.75l-0.235-0.822-0.235-0.705-0.822-0.47-1.527-0.587-0.47-0.587-0.117-0.705 0.117-1.057 0.47-0.587 0.939-1.057 0.705-1.174 0.235-1.409 0.117-0.822-0.117-0.939-0.47-0.939-0.939-1.292-2.349-2.349-1.174-1.761-1.057-0.822-1.761-1.057-0.939-1.057-1.174-2.466-0.235-0.705-0.117-2.114 0.587-1.527 0.705-1.174 0.939-1.761 0.352-1.409 0.235-1.644v-4.932l-0.235-3.171 0.235-0.822 0.47-1.174-0.117-0.705-0.822-1.292-0.352-0.939 0.117-1.292 0.587-0.587 2.701-1.409 0.352-0.587-0.235-0.822-1.644-1.996-1.057-1.057-0.352-0.47-0.117-0.705 0.47-0.705 0.587-0.117 0.705 0.117 2.349 1.409 0.47 0.117 0.587-0.235 0.235-1.292-0.235-0.939-0.47-0.822-0.939-0.822-2.701-1.409-0.705-0.822 0.352-0.352 0.705-0.117 2.466-0.235 0.705-0.235 0.47-0.47 0.822-1.057 0.587-0.352 0.705-0.117 1.996 0.47h0.705l1.174-0.587 0.939-1.057 0.587-0.352 2.231-0.47 0.47-0.352-0.235-0.939-0.47-1.057-1.409-1.879-1.527-1.644-1.761-1.057-3.875-1.644-0.47-0.47-0.352-0.705 0.117-0.939 0.352-0.587 1.409-0.822 1.644-0.352 0.47-0.47 0.117-0.587-0.352-0.705-0.939-0.822-1.527-0.705-0.587-0.47-0.47-0.705-0.352-1.409-0.47-0.939-0.822-0.47h-0.705l-0.705 0.352-1.174 1.761-0.939 0.822-0.705 0.235-1.409-0.235-1.057-0.822-0.939-1.292-1.527-2.466-1.174-1.527-1.996-1.761-9.512-5.167-1.409-0.352h-0.822l-1.527 0.47-1.057 0.822-0.939 1.057-0.587 0.352-2.349 0.47-1.996 0.705-1.292-0.352-1.057-0.705-4.815-4.932-0.352-0.705-0.235-0.822v-1.409l0.235-0.822 1.174-2.701 0.235-1.409-0.235-0.939-0.47-1.057-1.057-1.174-0.822-0.587-0.822-0.352-11.039-0.939-1.057-0.705 0.235-1.761 0.117-1.996-0.235-1.174v-1.761l0.939-3.64v-1.174l-0.822-0.352-0.705-0.117-4.345 0.352-0.822 0.117-0.822 0.939-2.231 5.050-1.527 2.114-0.117 0.705 0.235 0.822 0.705 1.174 0.47 0.939 0.117 0.822-0.117 0.822-0.235 0.587-0.47 0.352h-0.705l-0.47-0.352-1.644-1.761h-0.47l-0.47 0.352-0.587 1.057-0.822 1.057-1.292 0.822-1.527 0.117-0.705-0.235-1.527-1.174-1.409-0.47-11.156 2.114-2.701 1.292-2.349 1.644-1.292 0.587-0.822 0.117-0.822-0.235-0.822-0.587-0.822-1.292-0.352-0.822v-1.057l0.235-1.644 0.939-2.583v-0.822l-0.117-0.939-0.587-1.292-0.47-0.822-0.587-0.47-0.587-0.352-5.050-1.174-0.47-0.705 0.822-0.47 1.761-0.47 0.822-0.235 0.235-0.587-0.117-0.587-1.292-1.057-4.11-1.409-0.587-0.352-1.292-1.527-0.587-0.235-0.705 0.117-2.466 0.587h-1.644l-1.527-0.117-1.174-0.705-1.879-1.879-1.292-1.761-1.409-2.349-1.292-2.466v-3.288l0.352-4.58-0.235-6.341-0.235-1.292-0.587-1.527-0.352-0.587-3.288-3.523-0.47-1.292-0.117-0.822 0.117-0.705 0.587-0.822 0.705-0.47 6.576-2.583 0.705-0.587 0.705-0.939 0.705-1.879 1.057-1.761 0.235-0.705-0.117-0.822-0.587-1.174-0.587-0.587-0.705-0.352-6.106-0.822-0.587-0.235-0.47-0.47-0.939-2.114-0.352-0.587-0.587-0.352-0.705-0.117-14.327 0.939-1.527-0.352-0.587-0.822-0.587-0.117-0.47 0.235-3.171 4.228-0.939 0.939-1.174 0.822-1.879 0.939-0.822 0.117-2.349-0.235-1.292-0.352-3.64-1.879-0.352-0.587v-0.939l1.879-3.64 0.352-0.939 0.822-3.288 0.47-1.174 1.057-0.587 5.050-1.292 2.701-1.174 0.705-0.47 0.939-0.939 2.349-4.11 0.822-0.587 0.939-0.352 4.345-0.587 1.527-0.47 3.64-2.114 0.587-0.117 0.705 0.939 0.705 2.349 0.705 1.292 0.47 0.352 0.705 0.117 4.345-0.587 0.939-1.174 0.939-2.231 1.174-5.519 0.939-1.996 0.939-1.057 4.58 0.47 1.174 0.587 1.527 1.292 1.292 0.587 2.231 0.235 0.705-0.117 0.587-0.352 0.47-0.587v-0.587l-1.409-1.761-0.352-0.939 0.235-1.409 0.235-0.939 2.583-6.694v-0.939l-0.117-1.292-1.174-5.167-0.117-1.644 0.47-2.349 0.587-1.409 0.587-1.057 0.235-1.057-0.587-0.117-3.993 0.47-0.939-0.352-0.352-0.587-2.114-5.872-1.057-1.879-1.057-1.761-0.235-0.587v-0.705l0.587-0.587 3.523-2.466 0.47-0.587 0.235-0.705-0.117-0.939-0.47-1.409-0.939-1.409-3.523-3.993-0.587-1.409-0.235-0.705-0.705-3.523-0.117-0.822-0.939-1.996-2.583-4.228-14.444-14.679 0.822-1.174 1.761-1.761 12.095-7.633 7.046-6.694-0.47-0.235-1.879-2.466 0.352-1.174 0.352-0.47-0.47-0.822-1.057-0.939-2.701-1.527-1.174-1.057-0.705-0.939-0.117-0.939-0.235-2.701-0.235-6.694 0.235-3.993 0.822-5.989v-2.231l-0.587-1.292-7.868-6.811-25.365-2.936-1.409 0.235-0.939 0.47-1.057 1.644-1.057 2.466-0.705 1.996-0.939 0.822-1.292 0.705-10.569 2.231-0.939-0.235-0.939-0.47-1.409-1.174-0.587-0.939-0.117-1.057 1.174-2.231 0.352-1.292 0.352-3.053-0.117-1.527-0.352-0.587-0.47-0.47-1.527-0.822-0.705-0.47-0.352-0.587-1.644-0.705-13.622-1.292-3.993 0.822-9.629-0.235-1.527 0.352-6.341 3.406-3.993 3.171-0.705 1.057-0.352 0.587-0.117 1.527v2.231l0.352 4.697-0.235 1.527-0.352 0.587-0.705 0.235-0.939-0.235-0.822-0.705-0.939-1.761-0.822-2.114-0.235-0.47-0.822 0.822-0.822 1.879-1.761 3.523-0.705 0.117-1.057-0.352-8.455-7.163-0.47 0.235-0.47 1.996-0.352 0.587-0.47 0.352-3.288 0.117-0.822-0.47-0.822-1.057-0.939-2.818-0.705-2.583-0.47-0.705-0.822-0.235-3.406-0.235-0.705-0.352-0.47-0.705-0.117-1.409 0.117-1.879 0.235-1.409 0.47-1.409 0.705-1.879-1.409-3.406-7.75-11.156-15.736 9.747-1.879 1.409 0.117 0.587 0.235 0.587 2.114 2.466 0.352 0.587 0.587 1.527 0.117 0.705v1.057l-0.352 1.174-0.705 1.879-0.587 0.822-4.932 3.875-5.284 5.519-1.644 2.349-0.705 1.527 2.349 2.349 0.47 0.587 0.117 0.939-0.587 1.292-2.466 2.231-0.235 0.822v0.939l0.939 3.053 0.705 1.057 0.705 0.235 14.561 0.705 1.174 0.705 0.352 0.587 0.352 2.114 0.117 1.996-0.352 1.996-1.409 2.349-1.174 1.879-0.705 0.47-0.705 0.235h-6.459l-4.228 0.822-0.939 0.587-0.939 0.939-3.993 6.459-0.235 1.057v0.822l0.705 1.292 0.235 0.822v1.174l-0.822 1.174-3.875 2.701-0.587 0.235-0.587-0.235-0.352-0.47-1.527-2.231-0.939-0.939-0.587-0.235h-0.587l-1.409 0.587-4.228 2.466-12.448 3.875-1.174 0.705-0.587 0.705-2.701 4.345-3.053 5.872-0.705 0.939-0.822 0.47-0.705-0.117-3.875-1.409-1.879 0.117-1.409 0.587-0.705 0.587-0.47 0.705-0.235 0.705-0.117 2.818-0.352 1.292-0.587 0.705-3.171 1.409-2.231 1.761-1.409 0.587-1.057 0.235-3.523-0.705-0.587-0.352-0.47-0.587-0.352-1.527-0.352-2.701-0.47-1.527-0.705-0.47h-4.11l-1.174-0.587-0.939-0.939-1.174-1.527-1.057-1.057-0.939-0.352-1.057 0.587-3.523 5.284-0.47 1.174v0.939l0.705 1.057 3.171 2.466 0.352 0.587 0.117 0.822-0.939 2.466-0.235 0.939-0.352 2.349-0.47 1.292-5.284 8.925-1.057 2.349-0.235 1.409v1.057l0.352 0.587 1.644 0.939 0.47 0.352 0.705 1.292 1.057 3.053 0.822 1.996 0.705 1.292 0.705 1.174 1.057 0.822 1.292 0.587 1.527 0.235 5.050-0.587 1.057 0.117 1.174 0.47 0.117 1.057-0.235 1.527-1.761 4.11-0.47 0.822-4.11 4.932-0.705 0.47-0.822 0.117-8.455 0.47-1.057 0.352-1.174 0.587-0.587 0.705-0.352 0.822-0.235 2.466-0.235 1.174-0.587 0.587-1.879 1.292-0.235 0.822-0.117 1.879-0.47 0.587-0.587 0.235-2.231-0.352h-0.939l-1.057 0.235-1.527 0.822-0.705 0.705-0.235 0.822v0.939l0.352 1.409 0.939 2.114 2.114 3.758 1.644 2.231 1.057 1.057 1.409 1.057 0.705 0.352 5.050 0.117 0.705 0.117 1.174 0.705 0.822 1.057 0.235 1.527v3.64l-0.117 1.292-0.587 1.879-0.587 1.174-1.174 1.409-0.47 0.822-0.235 0.939 0.235 7.633 0.235 1.644 22.429 7.516 1.057 0.705-0.822 1.057-0.705 1.174-0.587 1.174-0.822 2.818-0.235 1.527v1.644l0.705 6.576v2.231l-0.235 1.292-0.352 0.47-0.939 0.587h-0.705l-2.818-0.587-1.057 0.117-0.587 0.352v1.174l0.352 2.231 1.644 3.758 0.47 1.761 0.117 1.292-0.939 2.466-0.587 1.057-1.879 2.936-0.47 1.292-0.235 0.822-0.352 3.523-0.47 1.761-0.587 1.174-0.939 1.057-5.050 2.818-7.75 2.349-0.705 0.47-0.705 0.822-0.587 1.527-0.117 1.409v1.527l0.117 2.231-0.117 1.174-0.235 0.822-1.174 0.705-4.228 0.587-1.292 0.705-1.644 1.292-0.939 1.057-1.174 1.879v0.939l0.352 2.818v3.053l0.235 1.527 0.47 0.939 0.822 0.117 2.583-0.117 0.705 0.352 0.47 0.47 0.822 1.292 0.587 1.879-0.939 1.057-8.455 3.523-1.409 1.057-0.822 0.939-0.117 1.174 0.117 3.875 0.117 1.409 0.235 1.057 0.822 1.057 2.349 1.409 8.338 2.583 1.292 0.587 1.174 0.822 1.527 1.409 0.705 1.174 0.587 1.409 1.292 3.758 0.705 1.292 0.822 1.057 0.587 0.352 4.462 1.057 0.587 1.174 0.587 1.879 0.587 4.697-0.117 1.996-0.587 1.057-7.398 0.235-0.705 0.822-0.939 1.644-1.292 6.694-0.47 1.409-0.822 0.352-5.402 0.705-0.822-0.117-0.587-0.587 0.117-1.292-0.117-0.822-0.235-0.705-1.174-0.705-7.75-1.174-0.939 0.352-1.057 0.939-1.292 2.701-0.587 1.409-0.235 1.292v1.761l0.352 7.046 0.587 3.053 0.117 1.292-0.352 0.587-0.587 0.47-2.701 1.292-0.587 0.117-0.939-0.587-0.352-0.705-0.587-2.466-0.352-0.587-0.47-0.235-0.587 0.117-3.523 1.527-1.409 1.174-0.117 0.705v0.822l1.174 5.167 1.996 5.989 0.822 1.057 0.587 0.235 3.523-0.352 1.409 0.235 0.587 0.352 7.163 6.341 2.114 0.587 1.644 0.117 5.872-1.174 13.622 2.583 0.705 0.352 0.939 0.822 1.292 1.761 4.815 5.050 1.409 2.349 2.349 5.050 7.633 20.316 1.409 4.932 0.822 1.292 2.231 1.644 0.587 0.705 0.822 1.409 0.235 2.114 0.235 3.288-0.235 1.996-0.47 1.527-1.174 1.996-0.587 1.057-0.352 1.174v2.114l-0.117 0.705-0.587 1.644 0.117 0.939h0.822l3.758-2.583 1.057-0.47 0.822-0.117 0.587 0.587 0.235 1.174 0.117 5.637 0.352 1.174 0.47 0.47 1.292-0.235h0.822l0.705 0.352 0.822 1.174v0.822l-0.939 2.466-0.235 2.231 0.47 3.523v1.644l-0.235 0.822h-0.587l-3.053-1.527-0.939-0.352-0.822 0.235-2.114 1.409-2.349 0.705-0.587 0.587-0.47 0.939-0.352 1.761-0.352 1.057-0.47 1.057-1.174 2.114-1.174 2.936-1.527 3.288-0.47 1.057-0.235 1.761 0.117 1.292 0.587 3.053-0.117 1.409-0.235 1.292-0.352 0.587-0.705 0.352-2.466 1.057-0.822 0.587-0.705 0.587-6.576 10.217-2.701 3.288-0.705 0.352-1.879 0.235-1.174 0.352-1.409 0.705-1.527 0.939-1.292 1.174-1.174 1.292-0.822 1.292-0.822 1.761v1.409l0.235 4.345-0.235 1.879-0.939 2.349-1.527 2.818-0.117 0.822 0.235 0.705 0.47 0.352 2.231 1.174 0.939 1.174 1.292 0.939 0.822 1.057 0.117 0.587-0.352 1.409-0.117 0.939v1.057l0.352 1.057 0.587 0.705 0.822 0.47 0.822 0.117 1.292-0.352 4.58-2.466 2.583-0.939 3.523-0.587 6.694 0.47 1.057-0.47 1.174-1.057 1.057-0.587 1.174-0.47 1.761 0.117 1.292 0.47 1.057 0.822 0.705 0.939 0.47 1.057 0.352 0.235 1.057 0.235 2.818 0.235 3.758-0.235 1.057-0.352 0.939-0.705 1.409-1.409 0.705-0.939 0.705-1.527 0.587-0.47 0.705-0.235 1.409 0.235 1.527 0.705 3.758 3.171 1.292 0.47 12.565 2.114 0.939-0.235 0.939-0.47 1.527-2.231 0.822-1.409 0.587-0.47 0.939-0.47 4.815-0.47 9.277 0.587 1.409 0.47 0.587 0.235 0.352 0.705 0.117 0.705-0.117 1.527-0.587 2.231-0.117 1.409 0.235 0.587 3.875 3.053 1.174-0.117 8.807-2.466 6.694 1.644 0.939-0.235 1.174-0.587 1.644-1.527 0.705-1.057 0.352-0.939-0.352-1.409-3.288-4.815-0.235-0.587 0.117-0.587 0.352-0.705 3.171-2.583 1.057-1.174 2.231-3.523 0.587-1.292 0.47-1.409 0.235-3.288 0.352-0.705 0.705-0.47 2.466-0.235 6.576 0.705 0.939-0.117 0.939-0.47 1.174-1.174 1.174-1.527 0.705-1.409 0.352-0.47 9.512-8.103 0.47-0.587 0.235-1.527-0.822-3.406-0.117-0.822 0.235-0.822 0.939-0.587 11.861-1.996 6.341-4.11 1.292-1.292 0.705-1.057-0.117-1.761-0.47-1.644-0.587-1.527-0.587-1.292 0.117-1.057 0.705-1.174 1.761-1.996 0.47-1.174 0.117-0.939 0.47-1.174 1.057-1.174 2.936-2.583 0.822-1.292 0.352-0.939 0.822-0.822 7.046-2.114 2.114-0.117 1.409 0.235 0.47 0.47 2.114 2.818 0.587 0.352h0.705l0.822-0.117 1.527-0.587 0.587-0.587 0.47-0.939v-0.939l0.117-2.701 0.352-0.587 0.47-0.587 1.879 0.235 13.387 4.11 0.822-0.117 5.637-1.527 1.057 0.235 0.939 0.352 0.47 0.47 2.701 1.996 2.701 1.057 5.989 1.174 3.406-0.352 0.939-0.352 0.822-0.705 1.644-1.879 0.705-1.174 0.705-1.644 0.939-1.879 0.822-1.057 0.939-1.057 4.228-2.466 1.409-1.527 0.705-1.057 0.47-1.644 0.47-1.292 0.939-0.822 4.697-2.466 2.231-0.117 1.174 0.352 0.47 0.705 3.758 10.804 0.235 0.822 0.939 2.231 1.174 3.993 0.822 1.292 0.587 0.352 9.747 3.053h0.705l0.587-0.235 0.587-1.057 0.587-1.644 0.352-1.409 0.235-0.705 0.47-0.352 0.939 0.117 1.174 0.822 2.583 3.406 0.47 0.47 0.705-0.235 0.939-0.822 1.527-2.466 0.235-1.292v-1.057l-1.761-3.288-0.352-1.644 0.117-1.644 0.587-2.114 0.587-0.705 0.822-0.822 7.398-2.701h0.705l0.705 0.117 1.057 0.822 1.409 1.527 0.587 0.352h0.822l5.402-0.705 0.822-0.235 0.705-0.352 0.47-1.996v-1.761l0.47-0.705 1.174-0.117 1.644 0.235 1.409 0.352 0.939 1.057 1.174 1.996 0.352 1.292-0.235 0.587-2.114 2.701-0.352 1.292 0.47 1.527 0.47 2.349 0.352 0.705 0.47 0.352 0.705 0.117 15.853-2.936h3.406l2.231 0.587 1.057 0.705 0.47 0.47 1.761 3.406 0.939 1.057 2.466 1.292 2.701 1.057 0.939-0.235-0.235-0.47-1.057-1.057-0.352-0.587-0.117-0.587 0.235-0.705 0.705-0.587 0.822-0.235 0.705 0.117 2.818 0.822 2.583 1.174 1.409 0.352 0.939-0.705 0.705-1.409 0.705-3.523 0.235-1.879v-1.409l-0.117-1.879 0.235-1.409 0.587-0.235 4.11-0.117 1.409-0.235 2.583-1.409 0.705-0.117 0.587 0.235 3.171 2.583 1.174 0.705 1.292 0.587h0.822l1.644-0.235 2.936-1.174 3.523-0.705h0.705l1.174 0.705 0.822 1.292 0.235 1.761-0.117 2.466 0.117 0.705 0.352 0.352 0.705 0.117 1.644-0.47 0.705-0.822 0.705-1.174 0.822-4.58v-1.174l-0.47-0.822-4.11-3.758-1.879-2.114-0.235-0.705v-0.705l0.352-0.822 1.761-2.231 0.235-0.822v-0.939l-0.587-1.292-0.939-1.527-1.292-1.644-1.057-2.114-1.527-17.615-0.822-3.875-0.822-2.231-0.705-0.117-0.587-0.587-0.352-0.822-0.352-1.527-0.47-0.939-0.47-0.705-0.822-0.822-0.117-0.705 1.174-1.174 1.409-1.292 2.466-3.993 0.235-0.705-0.117-0.939-0.47-1.292-0.47-0.822-0.587-0.587-3.64-3.171-0.705-1.174-0.352-1.527-0.352-4.462 0.117-0.939 0.235-0.939 1.292-1.761 0.939-0.352h0.822l3.875 1.292zM574.004 499.787l-3.288 1.057-3.406-3.171-3.406-1.996-4.932-1.644h-3.053l-4.815 1.879-1.292 0.235-3.993 1.527-4.932 1.057-7.633 1.057-7.633-1.527-3.993-2.583-2.818-6.811-1.174-8.925-0.587-5.637v-6.341l1.527-5.637 4.815-1.057 6.811-3.171 4.58-1.527 2.114-4.11 2.818-1.057 3.406 4.11 8.22 1.057 4.58 0.47 3.053-1.057 5.872-0.47 5.167 1.057 3.406 5.167-1.174 5.167-3.993 3.171-1.527 6.811 0.587 5.167 3.406 6.224 3.64 4.228-0.352 7.281zM574.004 499.787l0.352-7.281-3.64-4.228-3.406-6.224-0.587-5.167 1.527-6.811 3.993-3.171 1.174-5.167-3.406-5.167-5.167-1.057-5.872 0.47-3.053 1.057-4.58-0.47-8.22-1.057-3.406-4.11-2.818 1.057-2.114 4.11-4.58 1.527-6.811 3.171-4.815 1.057-1.527 5.637v6.341l0.587 5.637 1.174 8.925 2.818 6.811 3.993 2.583 7.633 1.527 7.633-1.057 4.932-1.057 3.993-1.527 1.292-0.235 4.815-1.879h3.053l4.932 1.644 3.406 1.996 3.406 3.171 3.288-1.057z" />
<glyph unicode="&#xe901;" glyph-name="menu" d="M128 384h768c23.552 0 42.667 19.115 42.667 42.667s-19.115 42.667-42.667 42.667h-768c-23.552 0-42.667-19.115-42.667-42.667s19.115-42.667 42.667-42.667zM128 640h768c23.552 0 42.667 19.115 42.667 42.667s-19.115 42.667-42.667 42.667h-768c-23.552 0-42.667-19.115-42.667-42.667s19.115-42.667 42.667-42.667zM128 128h768c23.552 0 42.667 19.115 42.667 42.667s-19.115 42.667-42.667 42.667h-768c-23.552 0-42.667-19.115-42.667-42.667s19.115-42.667 42.667-42.667z" />
<glyph unicode="&#xe902;" glyph-name="close" d="M512 533.197l-362.035 362.035-72.397-72.397 362.035-362.035-362.035-362.035 72.397-72.397 362.035 362.035 362.035-362.035 72.397 72.397-362.035 362.035 362.035 362.035-72.397 72.397-362.035-362.035z" />
<glyph unicode="&#xe903;" glyph-name="menu1" d="M0 819.2h1024v-102.4h-1024v102.4zM0 512h1024v-102.4h-1024v102.4zM0 204.8h1024v-102.4h-1024v102.4z" />
<glyph unicode="&#xe904;" glyph-name="close1" d="M512 533.197l-362.035 362.035-72.397-72.397 362.035-362.035-362.035-362.035 72.397-72.397 362.035 362.035 362.035-362.035 72.397 72.397-362.035 362.035 362.035 362.035-72.397 72.397-362.035-362.035z" />
<glyph unicode="&#xe905;" glyph-name="checkbox-off2" d="M896 960h-768c-70.4 0-128-57.6-128-128v-768c0-70.4 57.6-128 128-128h768c70.4 0 128 57.6 128 128v768c0 70.4-57.6 128-128 128zM896 64h-768v768h768v-768z" />
<glyph unicode="&#xe906;" glyph-name="checkbox-on2" d="M896 960h-768c-70.4 0-128-57.6-128-128v-768c0-70.4 57.6-128 128-128h768c70.4 0 128 57.6 128 128v768c0 70.4-57.6 128-128 128zM448 165.49l-237.254 237.256 90.51 90.508 146.744-146.744 306.746 306.746 90.508-90.51-397.254-397.256z" />
<glyph unicode="&#xe907;" glyph-name="quill" d="M0-64c128 384 463 1024 1024 1024-263-211-384-704-576-704s-192 0-192 0l-192-320h-64z" />
<glyph unicode="&#xe908;" glyph-name="checkbox-off1" d="M810 810.667q34 0 60-26t26-60v-596q0-34-26-60t-60-26h-596q-34 0-60 26t-26 60v596q0 34 26 60t60 26h596zM810 724.667h-596v-596h596v596z" />
<glyph unicode="&#xe909;" glyph-name="checkbox-on1" d="M426 212.667l384 384-60 62-324-324-152 152-60-60zM810 810.667q36 0 61-25t25-61v-596q0-36-25-61t-61-25h-596q-36 0-61 25t-25 61v596q0 36 25 61t61 25h596z" />
<glyph unicode="&#xe90a;" glyph-name="circle-left" d="M512-64c282.77 0 512 229.23 512 512s-229.23 512-512 512-512-229.23-512-512 229.23-512 512-512zM512 864c229.75 0 416-186.25 416-416s-186.25-416-416-416-416 186.25-416 416 186.25 416 416 416zM669.256 642.744l-90.512 90.512-285.254-285.256 285.256-285.254 90.508 90.508-194.744 194.746z" />
<glyph unicode="&#xe90b;" glyph-name="circle-down" d="M1024 448c0 282.77-229.23 512-512 512s-512-229.23-512-512 229.23-512 512-512 512 229.23 512 512zM96 448c0 229.75 186.25 416 416 416s416-186.25 416-416-186.25-416-416-416-416 186.25-416 416zM317.256 605.256l-90.512-90.512 285.256-285.254 285.254 285.256-90.508 90.508-194.746-194.744z" />
<glyph unicode="&#xe90c;" glyph-name="circle-right" d="M512 960c-282.77 0-512-229.23-512-512s229.23-512 512-512 512 229.23 512 512-229.23 512-512 512zM512 32c-229.75 0-416 186.25-416 416s186.25 416 416 416 416-186.25 416-416-186.25-416-416-416zM354.744 253.256l90.512-90.512 285.254 285.256-285.256 285.254-90.508-90.508 194.744-194.746z" />
<glyph unicode="&#xe90d;" glyph-name="circle-up" d="M0 448c0-282.77 229.23-512 512-512s512 229.23 512 512-229.23 512-512 512-512-229.23-512-512zM928 448c0-229.75-186.25-416-416-416s-416 186.25-416 416 186.25 416 416 416 416-186.25 416-416zM706.744 290.744l90.512 90.512-285.256 285.254-285.254-285.256 90.508-90.508 194.746 194.744z" />
<glyph unicode="&#xe90e;" glyph-name="location" d="M512 960c-176.732 0-320-143.268-320-320 0-320 320-704 320-704s320 384 320 704c0 176.732-143.27 320-320 320zM512 448c-106.040 0-192 85.96-192 192s85.96 192 192 192 192-85.96 192-192-85.96-192-192-192z" />
<glyph unicode="&#xe90f;" glyph-name="location1" d="M510.016-64c0 0-318.016 449.984-318.016 641.984 0 378.016 318.016 382.016 318.016 382.016s321.984-4 321.984-380c0-197.984-321.984-644-321.984-644zM512 768c-70.688 0-128-57.312-128-128s57.312-128 128-128 128 57.312 128 128-57.312 128-128 128z" />
<glyph unicode="&#xe910;" glyph-name="check-circle1" d="M426 212.667l384 384-60 62-324-324-152 152-60-60zM512 852.667q176 0 301-125t125-301-125-301-301-125-301 125-125 301 125 301 301 125z" />
<glyph unicode="&#xe911;" glyph-name="checkmark" d="M1014.592 731.744l-90.848 90.848c-12.576 12.576-32.832 12.576-45.408 0l-464.48-490.368-266.24 266.368c-12.704 12.704-33.312 12.704-46.016 0l-92.032-92.096c-12.704-12.672-12.704-33.28 0-46.016l378.656-387.456c7.328-7.36 17.28-9.888 26.848-8.64 9.888-1.472 20.192 1.024 27.776 8.64l571.744 613.28c12.544 12.544 12.544 32.896 0 45.44z" />
<glyph unicode="&#xe912;" glyph-name="check-square" d="M353.835 439.168l128-128c16.683-16.683 43.691-16.683 60.331 0l426.667 426.667c16.683 16.683 16.683 43.691 0 60.331s-43.691 16.683-60.331 0l-396.501-396.501-97.835 97.835c-16.683 16.683-43.691 16.683-60.331 0s-16.683-43.691 0-60.331zM853.333 426.667v-298.667c0-11.776-4.736-22.4-12.501-30.165s-18.389-12.501-30.165-12.501h-597.333c-11.776 0-22.4 4.736-30.165 12.501s-12.501 18.389-12.501 30.165v597.333c0 11.776 4.736 22.4 12.501 30.165s18.389 12.501 30.165 12.501h469.333c23.552 0 42.667 19.115 42.667 42.667s-19.115 42.667-42.667 42.667h-469.333c-35.328 0-67.413-14.379-90.496-37.504s-37.504-55.168-37.504-90.496v-597.333c0-35.328 14.379-67.413 37.504-90.496s55.168-37.504 90.496-37.504h597.333c35.328 0 67.413 14.379 90.496 37.504s37.504 55.168 37.504 90.496v298.667c0 23.552-19.115 42.667-42.667 42.667s-42.667-19.115-42.667-42.667z" />
<glyph unicode="&#xe913;" glyph-name="check-circle" d="M896 465.92v-39.253c-0.043-106.027-43.051-201.941-112.64-271.445s-165.547-112.384-271.573-112.299-201.984 43.051-271.445 112.64-112.384 165.504-112.341 271.573 43.051 201.941 112.64 271.445 165.547 112.384 271.573 112.341c56.747-0.043 110.336-12.331 155.691-33.067 21.419-9.813 46.763-0.341 56.533 21.077s0.341 46.763-21.077 56.533c-56.619 25.856-122.283 40.747-191.104 40.789-129.579 0.085-246.997-52.437-331.947-137.259s-137.557-202.24-137.643-331.819 52.437-246.997 137.259-331.947 202.197-137.6 331.776-137.643 246.997 52.437 331.947 137.259 137.6 202.197 137.685 331.819v39.253c0 23.552-19.115 42.667-42.667 42.667s-42.667-19.115-42.667-42.667zM908.501 798.166l-396.501-396.885-97.835 97.792c-16.683 16.683-43.691 16.683-60.331 0s-16.683-43.691 0-60.331l128-128c16.683-16.683 43.691-16.64 60.373 0l426.667 427.093c16.64 16.683 16.64 43.691-0.043 60.331s-43.691 16.64-60.331-0.043z" />
<glyph unicode="&#xe914;" glyph-name="check" d="M823.168 712.832l-439.168-439.168-183.168 183.168c-16.683 16.683-43.691 16.683-60.331 0s-16.683-43.691 0-60.331l213.333-213.333c16.683-16.683 43.691-16.683 60.331 0l469.333 469.333c16.683 16.683 16.683 43.691 0 60.331s-43.691 16.683-60.331 0z" />
<glyph unicode="&#xe915;" glyph-name="user-check" d="M725.333 42.667v85.333c0 58.88-23.936 112.299-62.464 150.869s-91.989 62.464-150.869 62.464h-298.667c-58.88 0-112.299-23.936-150.869-62.464s-62.464-91.989-62.464-150.869v-85.333c0-23.552 19.115-42.667 42.667-42.667s42.667 19.115 42.667 42.667v85.333c0 35.371 14.293 67.285 37.504 90.496s55.125 37.504 90.496 37.504h298.667c35.371 0 67.285-14.293 90.496-37.504s37.504-55.125 37.504-90.496v-85.333c0-23.552 19.115-42.667 42.667-42.667s42.667 19.115 42.667 42.667zM576 640c0 58.88-23.936 112.299-62.464 150.869s-91.989 62.464-150.869 62.464-112.299-23.936-150.869-62.464-62.464-91.989-62.464-150.869 23.936-112.299 62.464-150.869 91.989-62.464 150.869-62.464 112.299 23.936 150.869 62.464 62.464 91.989 62.464 150.869zM490.667 640c0-35.371-14.293-67.285-37.504-90.496s-55.125-37.504-90.496-37.504-67.285 14.293-90.496 37.504-37.504 55.125-37.504 90.496 14.293 67.285 37.504 90.496 55.125 37.504 90.496 37.504 67.285-14.293 90.496-37.504 37.504-55.125 37.504-90.496zM695.168 439.168l85.333-85.333c16.683-16.683 43.691-16.683 60.331 0l170.667 170.667c16.683 16.683 16.683 43.691 0 60.331s-43.691 16.683-60.331 0l-140.501-140.501-55.168 55.168c-16.683 16.683-43.691 16.683-60.331 0s-16.683-43.691 0-60.331z" />
<glyph unicode="&#xe916;" glyph-name="equalizer" d="M896 512h16c26.4 0 48 21.6 48 48v160c0 26.4-21.6 48-48 48h-16v192h-128v-192h-16c-26.4 0-48-21.6-48-48v-160c0-26.4 21.6-48 48-48h16v-576h128v576zM768 704h128v-128h-128v128zM592 128c26.4 0 48 21.6 48 48v160c0 26.4-21.6 48-48 48h-16v576h-128v-576h-16c-26.4 0-48-21.6-48-48v-160c0-26.4 21.6-48 48-48h16v-192h128v192h16zM448 320h128v-128h-128v128zM272 512c26.4 0 48 21.6 48 48v160c0 26.4-21.6 48-48 48h-16v192h-128v-192h-16c-26.4 0-48-21.6-48-48v-160c0-26.4 21.6-48 48-48h16v-576h128v576h16zM128 704h128v-128h-128v128z" />
<glyph unicode="&#xe917;" glyph-name="injection" d="M773.12 665.376c12.096-12.064 12.096-31.648 0-43.744-12.096-12.064-21.92-21.888-21.92-21.888l21.92-21.888c24.16-24.16 24.16-63.328 0-87.52l-328.16-328.096c-24.192-24.192-63.36-24.192-87.52 0l-21.888 21.888-87.488-87.552 43.744-43.744c12.096-12.064 12.096-31.616 0-43.744-12.096-12.064-31.68-12.064-43.744 0l-175.040 175.072c-12.064 12.064-12.064 31.616 0 43.744 12.096 12.064 31.68 12.064 43.744 0l43.744-43.744 87.52 87.488-21.888 21.888c-24.192 24.128-24.192 63.328 0 87.488l328.192 328.128c24.192 24.192 63.328 24.192 87.488 0l21.888-21.888c0 0 9.824 9.824 21.888 21.888 12.096 12.096 31.68 12.096 43.744 0l10.944-10.944 175.040 175.040v-43.744l-153.152-153.152 10.944-10.976zM619.968 687.264c-12.064 12.096-31.648 12.096-43.744 0l-65.632-65.632 43.744-43.744-21.888-21.888-43.744 43.744-65.632-65.632 43.744-43.776-21.888-21.888-43.776 43.776-21.888-21.888 87.52-87.488-21.888-21.888-87.52 87.488-65.568-65.568 87.488-87.488-21.888-21.888-87.488 87.488-21.888-21.888c-12.096-12.064-12.096-31.68 0-43.744l131.264-131.264c12.096-12.128 31.68-12.128 43.776 0l328.128 328.128c12.128 12.064 12.128 31.648 0 43.744l-131.232 131.296zM532.48 643.52l21.888 21.888 87.488-87.488-21.888-21.888-87.488 87.488zM532.48 468.512l-87.488 87.52 21.888 21.888 87.488-87.52-21.888-21.888zM313.696 424.736l21.888 21.888 43.744-43.744-21.888-21.888-43.744 43.744zM958.144 659.648c0-23.2-18.816-41.984-41.984-41.984-23.232 0-42.016 18.816-42.016 41.984 0 23.232 42.016 86.656 42.016 86.656s41.984-63.456 41.984-86.656z" />
<glyph unicode="&#xe918;" glyph-name="pil" d="M179.232 364.128c-62.464-62.496-62.464-163.808 0-226.304l22.656-22.624c62.464-62.432 163.776-62.432 226.272 0l180.992 181.056-248.896 248.896-181.024-181.024zM405.504 137.824c-49.984-49.984-131.040-49.984-180.992 0l-22.624 22.624c-49.984 49.984-49.984 131.072 0 181.056l158.368 158.368 203.648-203.616-158.4-158.432zM812.8 726.144l-22.624 22.624c-62.464 62.496-163.776 62.496-226.272 0l-181.024-180.992 248.896-248.896 181.024 180.992c62.496 62.496 62.496 163.808 0 226.272z" />
<glyph unicode="&#xe919;" glyph-name="healing" d="M710 70.667l156 156-156 154-154-156zM598 468.667q-18 0-31-12t-13-30 13-30 31-12 30 12 12 30-12 30-30 12zM512 298.667q18 0 30 12t12 30-12 31-30 13-30-13-12-31 12-30 30-12zM426 384.667q18 0 31 12t13 30-13 30-31 12-30-12-12-30 12-30 30-12zM312 470.667l154 156-154 154-156-156zM512 554.667q-18 0-30-12t-12-30 12-31 30-13 30 13 12 31-12 30-30 12zM756 426.667l170-170q14-14 14-30t-14-30l-184-186q-12-12-30-12-20 0-32 12l-168 170-170-170q-12-12-30-12t-30 12l-186 186q-12 12-12 30t12 30l170 170-170 168q-12 12-12 32 0 18 12 30l186 184q12 12 30 12t30-12l170-170 168 170q12 12 32 12 18 0 30-12l184-184q12-12 12-30 0-20-12-32z" />
<glyph unicode="&#xe91a;" glyph-name="doc1" d="M511.996 960c-110.337 0-200.080-89.767-200.080-200.104v-103.669c0-110.345 89.743-200.113 200.080-200.113 110.345 0 200.080 89.767 200.080 200.113v103.669c0.002 110.337-89.734 200.104-200.080 200.104zM953.246 195.357c-64.069 109.182-166.476 190.127-288.356 227.924-2.826 0.877-5.882 0.131-7.987-1.95-56.696-55.902-127.147-99.516-144.76-110.050-18.8 12.018-97.992 63.635-145.071 110.050-2.097 2.081-5.177 2.826-7.987 1.95-121.896-37.806-224.295-118.75-288.34-227.932-1.466-2.499-1.466-5.603 0-8.102 90.947-154.975 260.020-251.247 441.242-251.247 181.23 0 350.312 96.272 441.259 251.247 1.475 2.507 1.475 5.611 0 8.11zM784.116 135.67c0-4.415-4.202-7.791-8.61-7.791h-54.19c-4.415 0-9.232-3.793-9.232-8.217v-56.041c0-4.407-2.359-7.774-6.775-7.774h-48.668c-4.415 0-8.577 3.367-8.577 7.774v56.041c-0.016 4.415-3.031 8.217-7.446 8.217h-56.524c-4.415 0-8.069 3.383-8.069 7.791v48.25c0 4.415 3.654 7.979 8.069 7.979h56.524c4.415 0 7.43 3.604 7.43 8.028v56.107c0 4.415 4.162 7.897 8.577 7.897h48.144c4.407 0 7.307-3.482 7.307-7.897v-56.27c0-4.424 4.276-7.856 8.7-7.856h54.73c4.407 0 8.61-3.736 8.61-8.151v-48.087z" />
<glyph unicode="&#xe91b;" glyph-name="doc2" d="M712.38 761.608v155.355c0 3.326-2.613 6.308-5.734 7.479-125.453 47.407-263.635 47.415-389.129 0-3.105-1.171-5.136-4.153-5.136-7.479v-157.524c0-0.86 0-1.712 0-2.531v-101.761c0-110.174 89.825-199.811 200-199.811s200 89.629 200 199.811v103.512c0 1.040 0 2.032 0 2.949zM559.64 831.518h-23.265v-23.396c0-13.238-10.756-23.978-24.003-23.978s-24.003 10.74-24.003 23.978v23.396h-23.921c-13.23 0-23.97 10.756-23.97 24.003s10.74 24.003 23.97 24.003h23.921v23.781c0 13.238 10.748 23.978 24.003 23.978 13.238 0 24.003-10.74 24.003-23.978v-23.79h23.265c13.238 0 23.978-10.756 23.978-24.003 0-13.238-10.732-23.994-23.978-23.994zM952.594 194.966c-63.98 109.028-166.241 189.85-287.925 227.591-2.826 0.868-5.874 0.131-7.979-1.95-56.599-55.812-126.952-99.361-144.556-109.888-18.768 11.993-97.845 63.537-144.851 109.888-2.089 2.081-5.161 2.818-7.979 1.95-121.701-37.749-223.953-118.571-287.9-227.599-1.475-2.499-1.475-5.595 0-8.086 90.8-154.747 259.621-250.872 440.591-250.872 180.953 0 349.783 96.125 440.599 250.872 1.475 2.499 1.475 5.597 0 8.094zM600.379 95.515v103.998h63.996v32.293c0 13.238 10.756 23.97 24.003 23.97s24.003-10.732 24.003-23.97v-32.293h63.996v-103.998h-175.997z" />
<glyph unicode="&#xe91c;" glyph-name="doc3" d="M367.922 936.456c-61.759 0-112-50.241-112-112s50.241-112 112-112 112.017 50.241 112.017 112c0 61.759-50.258 112-112.017 112zM367.922 760.477c-35.283 0-63.987 28.696-63.987 63.979s28.705 63.987 63.987 63.987c35.291 0 63.995-28.705 63.995-63.987s-28.705-63.979-63.995-63.979zM953.252 195.357c-64.069 109.182-166.476 190.127-288.356 227.924-2.826 0.877-5.882 0.131-7.987-1.95-56.696-55.902-127.147-99.516-144.768-110.050-18.8 12.018-97.984 63.635-145.071 110.050-2.097 2.081-5.169 2.826-7.987 1.95-121.896-37.806-224.295-118.75-288.34-227.932-1.466-2.499-1.466-5.603 0-8.102 90.947-154.975 260.020-251.247 441.242-251.247 181.23 0 350.312 96.272 441.259 251.247 1.483 2.507 1.483 5.611 0.008 8.11zM784.122 135.67c0-4.415-4.202-7.791-8.61-7.791h-54.19c-4.415 0-9.232-3.793-9.232-8.217v-56.041c0-4.407-2.359-7.774-6.775-7.774h-48.668c-4.415 0-8.577 3.367-8.577 7.774v56.041c-0.016 4.415-3.031 8.217-7.446 8.217h-56.524c-4.415 0-8.069 3.383-8.069 7.791v48.25c0 4.415 3.654 7.979 8.069 7.979h56.524c4.415 0 7.43 3.604 7.43 8.028v56.107c0 4.415 4.162 7.897 8.577 7.897h48.144c4.407 0 7.307-3.482 7.307-7.897v-56.27c0-4.424 4.276-7.856 8.7-7.856h54.73c4.407 0 8.61-3.736 8.61-8.151v-48.087zM511.986 960c-55.648 0-106.028-22.855-142.335-59.637 41.091-0.934 74.252-34.586 74.252-75.906 0-41.902-34.078-75.988-75.98-75.988-21.938 0-41.664 9.404-55.566 24.33-0.254-4.268-0.434-8.569-0.434-12.91v-103.669c0-110.337 89.743-200.104 200.080-200.104 110.345 0 200.080 89.767 200.080 200.113v103.669c0 110.337-89.751 200.104-200.096 200.104zM367.922 848.090c-13.025 0-23.634-10.6-23.634-23.634s10.609-23.634 23.634-23.634c13.042 0 23.634 10.6 23.634 23.634s-10.592 23.634-23.634 23.634z" />
<glyph unicode="&#xe91d;" glyph-name="camera" d="M304 352c0-114.876 93.124-208 208-208s208 93.124 208 208-93.124 208-208 208-208-93.124-208-208zM960 704h-224c-16 64-32 128-96 128h-256c-64 0-80-64-96-128h-224c-35.2 0-64-28.8-64-64v-576c0-35.2 28.8-64 64-64h896c35.2 0 64 28.8 64 64v576c0 35.2-28.8 64-64 64zM512 68c-156.85 0-284 127.148-284 284 0 156.85 127.15 284 284 284 156.852 0 284-127.15 284-284 0-156.852-127.146-284-284-284zM960 512h-128v64h128v-64z" />
<glyph unicode="&#xe91e;" glyph-name="picture" d="M640 576l-192-320-127.040 92.672-0.96 3.328-7.552 2.912 5.888-4.32-190.336-158.592v-64h768v64l-96 288-160 96zM288 544c52.992 0 96 42.976 96 96s-43.008 96-96 96-96-42.976-96-96 43.008-96 96-96zM992 896h-960c-17.664 0-32-14.336-32-32v-832c0-17.696 14.336-32 32-32h960c17.696 0 32 14.304 32 32v832c0 17.664-14.304 32-32 32zM960 96c0-17.696-14.304-32-32-32h-832c-17.664 0-32 14.304-32 32v704c0 17.664 14.336 32 32 32h832c17.696 0 32-14.336 32-32v-704z" />
<glyph unicode="&#xe91f;" glyph-name="camera1" d="M992 768h-176l-48 96c0 17.664-14.304 32-32 32h-448c-17.696 0-32-14.336-32-32l-48-96h-176c-17.664 0-32-14.336-32-32v-704c0-17.696 14.336-32 32-32h960c17.696 0 32 14.304 32 32v704c0 17.664-14.304 32-32 32zM512 128c-141.376 0-256 114.624-256 256s114.624 256 256 256 256-114.624 256-256c0-141.376-114.624-256-256-256zM512 512c-70.688 0-128-57.312-128-128s57.312-128 128-128 128 57.312 128 128-57.312 128-128 128z" />
<glyph unicode="&#xe920;" glyph-name="camera2" horiz-adv-x="1097" d="M548.571 566.857c90.857 0 164.571-73.714 164.571-164.571s-73.714-164.571-164.571-164.571-164.571 73.714-164.571 164.571 73.714 164.571 164.571 164.571zM950.857 804.571c80.571 0 146.286-65.714 146.286-146.286v-512c0-80.571-65.714-146.286-146.286-146.286h-804.571c-80.571 0-146.286 65.714-146.286 146.286v512c0 80.571 65.714 146.286 146.286 146.286h128l29.143 77.714c14.286 37.714 58.857 68.571 98.857 68.571h292.571c40 0 84.571-30.857 98.857-68.571l29.143-77.714h128zM548.571 146.286c141.143 0 256 114.857 256 256s-114.857 256-256 256-256-114.857-256-256 114.857-256 256-256z" />
<glyph unicode="&#xe921;" glyph-name="image" horiz-adv-x="1097" d="M365.714 621.714c0-60.571-49.143-109.714-109.714-109.714s-109.714 49.143-109.714 109.714 49.143 109.714 109.714 109.714 109.714-49.143 109.714-109.714zM950.857 402.286v-256h-804.571v109.714l182.857 182.857 91.429-91.429 292.571 292.571zM1005.714 804.571h-914.286c-9.714 0-18.286-8.571-18.286-18.286v-694.857c0-9.714 8.571-18.286 18.286-18.286h914.286c9.714 0 18.286 8.571 18.286 18.286v694.857c0 9.714-8.571 18.286-18.286 18.286zM1097.143 786.286v-694.857c0-50.286-41.143-91.429-91.429-91.429h-914.286c-50.286 0-91.429 41.143-91.429 91.429v694.857c0 50.286 41.143 91.429 91.429 91.429h914.286c50.286 0 91.429-41.143 91.429-91.429z" />
<glyph unicode="&#xe922;" glyph-name="phone" d="M490.592 327.68c-0.832 0.576-97.088 162.4-97.408 164.48-19.904 43.488-35.968 87.968-2.496 107.712l-138.912 234.24c-36-26.912-137.824-172.96 52.768-503.936 200.768-348.8 391.84-334.304 430.144-310.688l-135.36 228.64c-32-18.816-58.944 12.192-108.736 79.552zM827.584 108.256l0.032 0.192c0 0-105.696 178.112-105.76 178.176-8.384 14.112-26.4 18.56-40.448 10.368l-64.768-38.304 135.744-229.312c0 0 64.768 38.112 64.736 38.24h0.128c14.88 8.832 18.304 27.072 10.336 40.64zM473.152 648.448v0.128c14.88 8.8 18.368 27.040 10.4 40.48l0.064 0.192c0 0-108.736 183.328-108.8 183.36-8.352 14.176-26.432 18.56-40.416 10.368l-64.768-38.304 138.752-234.368c0 0 64.736 38.048 64.768 38.144z" />
<glyph unicode="&#xe923;" glyph-name="child" horiz-adv-x="731" d="M678.857 637.714l-166.857-166.857v-470.857c0-35.429-28.571-64-64-64s-64 28.571-64 64v219.429h-36.571v-219.429c0-35.429-28.571-64-64-64s-64 28.571-64 64v470.857l-166.857 166.857c-21.143 21.714-21.143 56 0 77.714 21.714 21.143 56 21.143 77.714 0l130.286-130.286h210.286l130.286 130.286c21.714 21.143 56 21.143 77.714 0 21.143-21.714 21.143-56 0-77.714zM493.714 731.428c0-70.857-57.143-128-128-128s-128 57.143-128 128 57.143 128 128 128 128-57.143 128-128z" />
<glyph unicode="&#xe924;" glyph-name="phone1" horiz-adv-x="805" d="M804.571 242.286c0-20.571-9.143-60.571-17.714-79.429-12-28-44-46.286-69.714-60.571-33.714-18.286-68-29.143-106.286-29.143-53.143 0-101.143 21.714-149.714 39.429-34.857 12.571-68.571 28-100 47.429-97.143 60-214.286 177.143-274.286 274.286-19.429 31.429-34.857 65.143-47.429 100-17.714 48.571-39.429 96.571-39.429 149.714 0 38.286 10.857 72.571 29.143 106.286 14.286 25.714 32.571 57.714 60.571 69.714 18.857 8.571 58.857 17.714 79.429 17.714 4 0 8 0 12-1.714 12-4 24.571-32 30.286-43.429 18.286-32.571 36-65.714 54.857-97.714 9.143-14.857 26.286-33.143 26.286-50.857 0-34.857-103.429-85.714-103.429-116.571 0-15.429 14.286-35.429 22.286-49.143 57.714-104 129.714-176 233.714-233.714 13.714-8 33.714-22.286 49.143-22.286 30.857 0 81.714 103.429 116.571 103.429 17.714 0 36-17.143 50.857-26.286 32-18.857 65.143-36.571 97.714-54.857 11.429-5.714 39.429-18.286 43.429-30.286 1.714-4 1.714-8 1.714-12z" />
<glyph unicode="&#xe925;" glyph-name="envelope" d="M921.6 870.4c56.554 0 102.4-45.846 102.4-102.4v0-614.4c0-56.554-45.846-102.4-102.4-102.4v0h-819.2c-56.554 0-102.4 45.846-102.4 102.4v0 614.4c0 56.32 46.080 102.4 102.4 102.4h819.2zM697.856 404.48l326.144-250.88v102.4l-262.144 199.68 262.144 209.92v102.4l-512-409.6-512 409.6v-102.4l262.144-209.92-262.144-199.68v-102.4l326.144 250.88 185.856-148.48 185.856 148.48z" />
<glyph unicode="&#xe926;" glyph-name="address-card" horiz-adv-x="1170" d="M585.143 304.571c0 88.571-21.714 186.857-112 186.857-28-16-65.714-43.429-107.429-43.429s-79.429 27.429-107.429 43.429c-90.286 0-112-98.286-112-186.857 0-49.714 32.571-85.143 73.143-85.143h292.571c40.571 0 73.143 35.429 73.143 85.143zM495.429 601.714c0 71.429-58.286 129.714-129.714 129.714s-129.714-58.286-129.714-129.714c0-72 58.286-129.714 129.714-129.714s129.714 57.714 129.714 129.714zM1024 310.857v36.571c0 10.286-8 18.286-18.286 18.286h-329.143c-10.286 0-18.286-8-18.286-18.286v-36.571c0-10.286 8-18.286 18.286-18.286h329.143c10.286 0 18.286 8 18.286 18.286zM1024 459.428v32c0 11.429-9.143 20.571-20.571 20.571h-324.571c-11.429 0-20.571-9.143-20.571-20.571v-32c0-11.429 9.143-20.571 20.571-20.571h324.571c11.429 0 20.571 9.143 20.571 20.571zM1024 603.428v36.571c0 10.286-8 18.286-18.286 18.286h-329.143c-10.286 0-18.286-8-18.286-18.286v-36.571c0-10.286 8-18.286 18.286-18.286h329.143c10.286 0 18.286 8 18.286 18.286zM1170.286 786.286v-694.857c0-50.286-41.143-91.429-91.429-91.429h-201.143v54.857c0 10.286-8 18.286-18.286 18.286h-36.571c-10.286 0-18.286-8-18.286-18.286v-54.857h-438.857v54.857c0 10.286-8 18.286-18.286 18.286h-36.571c-10.286 0-18.286-8-18.286-18.286v-54.857h-201.143c-50.286 0-91.429 41.143-91.429 91.429v694.857c0 50.286 41.143 91.429 91.429 91.429h987.429c50.286 0 91.429-41.143 91.429-91.429z" />
<glyph unicode="&#xe927;" glyph-name="whatsapp" d="M746.581 346.368c-12.843 6.4-75.392 36.992-87.040 41.216-11.648 4.309-20.181 6.4-28.715-6.4-8.405-12.587-32.896-41.131-40.277-49.579-7.467-8.32-14.891-8.96-27.563-3.2-12.8 6.4-53.888 19.84-102.528 63.36-37.888 33.92-63.317 75.52-70.827 88.32-7.424 12.8-0.811 19.84 5.547 26.24 5.803 5.76 12.843 14.72 19.243 22.315 6.229 7.723 8.277 12.843 12.672 21.163 4.267 8.96 2.091 16-1.067 22.357-3.2 6.4-28.672 69.12-39.339 94.123-10.24 24.917-20.779 21.76-28.672 21.76-7.339 0.64-15.829 0.64-24.363 0.64s-22.315-3.157-34.005-15.317c-11.648-12.8-44.587-43.52-44.587-105.6s45.653-122.24 52.011-131.2c6.357-8.32 89.813-136.32 217.6-191.36 30.464-12.8 54.187-20.48 72.704-26.837 30.464-9.685 58.24-8.32 80.213-5.163 24.491 3.883 75.392 30.763 86.016 60.843 10.88 30.080 10.88 55.040 7.68 60.8-3.157 5.76-11.52 8.96-24.32 14.72zM514.603 32h-0.683c-75.52 0-150.357 20.48-215.68 58.88l-15.36 9.131-160-41.6 42.88 155.52-10.197 16c-42.24 67.243-64.683 144.683-64.683 224.427 0 232.32 190.080 421.76 424.192 421.76 113.237 0 219.52-44.16 299.563-124.16 80-79.317 124.117-185.6 124.117-298.24-0.171-232.277-190.293-421.76-423.893-421.76zM875.52 812.843c-97.28 94.037-225.28 147.157-361.6 147.157-280.832 0-509.483-227.584-509.611-507.435 0-89.429 23.424-176.64 68.053-253.653l-72.363-262.912 270.293 70.485c74.496-40.235 158.293-61.611 243.627-61.739h0.256c280.96 0 509.696 227.669 509.824 507.563 0 135.509-52.907 263.040-149.12 358.869z" />
<glyph unicode="&#xe928;" glyph-name="viber" d="M486.315 959.915c-82.133-1.109-258.859-14.592-357.717-105.173-73.387-72.96-99.029-180.523-102.016-313.728-2.56-132.693-5.547-381.867 234.667-449.749v-103.253s-1.621-41.387 25.685-49.92c33.707-10.667 52.907 21.291 84.907 55.424l59.733 67.413c164.267-13.653 290.133 17.877 304.64 22.571 33.28 10.667 221.056 34.603 251.776 283.819 31.573 257.323-15.36 419.456-99.84 492.843l-0.427 0.085c-25.6 23.467-128 98.133-357.12 98.987 0 0-16.896 1.067-44.288 0.683zM489.173 887.509c23.253 0.128 37.547-0.853 37.547-0.853 193.707-0.427 286.336-58.88 308.096-78.507 71.253-60.971 107.861-207.189 81.067-422.059-25.6-208.213-177.92-221.44-206.080-230.4-11.947-3.84-122.88-31.147-262.485-22.187 0 0-104.064-125.483-136.491-157.909-5.12-5.547-11.093-7.253-14.933-6.4-5.547 1.28-7.253 8.107-6.827 17.493l0.853 171.477c-203.563 56.32-191.616 268.885-189.483 379.819 2.56 110.933 23.467 201.899 85.333 263.339 83.499 75.52 233.6 85.76 303.36 86.187zM504.533 776.576c-0.013 0-0.028 0-0.043 0-7.046 0-12.757-5.712-12.757-12.757 0 0 0 0 0 0v0c0-7.069 5.731-12.8 12.8-12.8v0c1.364 0.028 2.971 0.044 4.583 0.044 65.1 0 124.152-25.892 167.421-67.939l-0.057 0.055c46.507-45.227 69.163-105.813 70.016-185.173 0-7.069 5.731-12.8 12.8-12.8v0 0.384c7.069 0 12.8 5.731 12.8 12.8v0c0.157 3.48 0.247 7.56 0.247 11.662 0 74.43-29.543 141.961-77.544 191.504l0.070-0.072c-50.773 49.493-114.859 75.093-190.379 75.093zM335.829 747.136c-1.727 0.259-3.721 0.408-5.748 0.408-7.549 0-14.619-2.053-20.681-5.631l0.19 0.104h-0.512c-17.493-10.24-33.621-23.040-48.981-40.107-11.52-13.653-17.963-27.264-19.669-40.491-0.279-2.039-0.438-4.396-0.438-6.791 0-5.823 0.941-11.426 2.678-16.666l-0.107 0.374 0.853-0.427c14.645-42.578 31.945-79.22 52.671-113.56l-1.471 2.627c28.652-51.472 61.491-95.882 99.246-135.571l-0.26 0.275 1.28-1.707 1.707-1.28 2.56-2.56c39.559-37.583 84.086-70.554 132.337-97.686l3.343-1.728c56.32-30.72 90.539-45.227 111.019-51.2v-0.427c5.973-1.707 11.435-2.56 16.981-2.56 18.235 1.369 34.519 8.773 47.083 20.196l-0.064-0.057c16.64 14.933 29.867 31.488 39.68 48.981v0.427c9.813 18.347 6.4 35.883-7.68 47.829-27.026 23.744-57.036 45.466-88.997 64.222l-2.736 1.484c-21.76 11.947-43.947 4.693-52.907-7.253l-19.2-24.277c-9.813-11.947-27.733-10.24-27.733-10.24l-0.512-0.427c-133.12 34.133-168.533 168.917-168.533 168.917s-1.707 18.347 10.667 27.733l23.893 19.2c11.52 9.387 19.627 31.573 7.253 53.333-20.207 34.7-41.93 64.712-66.261 92.376l0.555-0.643c-5.305 6.541-12.762 11.155-21.28 12.765l-0.224 0.035zM526.677 709.163c-7.051-0.024-12.757-5.746-12.757-12.8 0-7.069 5.731-12.8 12.8-12.8 0.015 0 0.030 0 0.045 0h-0.002c44.424-0.795 84.345-19.431 113.026-49.025l0.041-0.042c23.999-26.399 38.693-61.631 38.693-100.296 0-3.292-0.107-6.56-0.316-9.799l0.023 0.441c0.024-7.051 5.746-12.757 12.8-12.757 0 0 0 0 0 0v0l0.427-0.512c0 0 0 0 0 0 7.069 0 12.8 5.731 12.8 12.8 0 0.015 0 0.030 0 0.045v-0.002c1.28 50.773-14.507 93.44-45.653 127.573s-74.667 53.333-130.133 57.173c-0.268 0.020-0.581 0.031-0.896 0.031s-0.628-0.011-0.937-0.034l0.041 0.002zM547.584 640.085c-0.114 0.004-0.249 0.006-0.384 0.006-7.202 0-13.040-5.838-13.040-13.040 0-7.067 5.621-12.821 12.637-13.034h0.020c42.24-2.133 62.72-23.467 65.28-67.413 0.237-6.883 5.874-12.373 12.793-12.373 0.002 0 0.005 0 0.007 0h0.426c6.896 0.221 12.402 5.864 12.402 12.794 0 0.302-0.010 0.602-0.031 0.9l0.002-0.040c-2.987 57.173-34.133 89.216-89.6 92.203-0.076 0.002-0.166 0.003-0.256 0.003s-0.18-0.001-0.269-0.003h0.013z" />
<glyph unicode="&#xe94a;" glyph-name="address" d="M512 960c-282.77 0-512-229.23-512-512s229.23-512 512-512 512 229.23 512 512-229.23 512-512 512zM96 448c0 229.75 186.25 416 416 416 109.574 0 209.232-42.386 283.534-111.628l-411.534-176.372-176.372-411.534c-69.242 74.302-111.628 173.96-111.628 283.534zM585.166 374.834l-256.082-109.75 109.75 256.082 146.332-146.332zM512 32c-109.574 0-209.234 42.386-283.532 111.628l411.532 176.372 176.372 411.532c69.242-74.298 111.628-173.958 111.628-283.532 0-229.75-186.25-416-416-416z" />
<glyph unicode="&#xe94e;" glyph-name="clock" d="M658.744 210.744l-210.744 210.746v282.51h128v-229.49l173.256-173.254zM512 960c-282.77 0-512-229.23-512-512s229.23-512 512-512 512 229.23 512 512-229.23 512-512 512zM512 64c-212.078 0-384 171.922-384 384s171.922 384 384 384c212.078 0 384-171.922 384-384s-171.922-384-384-384z" />
<glyph unicode="&#xe950;" glyph-name="alarm" d="M512 832c-247.424 0-448-200.576-448-448s200.576-448 448-448 448 200.576 448 448-200.576 448-448 448zM512 24c-198.824 0-360 161.178-360 360 0 198.824 161.176 360 360 360 198.822 0 360-161.176 360-360 0-198.822-161.178-360-360-360zM934.784 672.826c16.042 28.052 25.216 60.542 25.216 95.174 0 106.040-85.96 192-192 192-61.818 0-116.802-29.222-151.92-74.596 131.884-27.236 245.206-105.198 318.704-212.578v0zM407.92 885.404c-35.116 45.374-90.102 74.596-151.92 74.596-106.040 0-192-85.96-192-192 0-34.632 9.174-67.122 25.216-95.174 73.5 107.38 186.822 185.342 318.704 212.578zM512 384v256h-64v-320h256v64z" />
<glyph unicode="&#xe952;" glyph-name="stopwatch" d="M512.002 766.788v65.212h128v64c0 35.346-28.654 64-64.002 64h-191.998c-35.346 0-64-28.654-64-64v-64h128v-65.212c-214.798-16.338-384-195.802-384-414.788 0-229.75 186.25-416 416-416s416 186.25 416 416c0 218.984-169.202 398.448-384 414.788zM706.276 125.726c-60.442-60.44-140.798-93.726-226.274-93.726s-165.834 33.286-226.274 93.726c-60.44 60.44-93.726 140.8-93.726 226.274s33.286 165.834 93.726 226.274c58.040 58.038 134.448 91.018 216.114 93.548l-21.678-314.020c-1.86-26.29 12.464-37.802 31.836-37.802s33.698 11.512 31.836 37.802l-21.676 314.022c81.666-2.532 158.076-35.512 216.116-93.55 60.44-60.44 93.726-140.8 93.726-226.274s-33.286-165.834-93.726-226.274z" />
<glyph unicode="&#xe953;" glyph-name="calendar" d="M320 576h128v-128h-128zM512 576h128v-128h-128zM704 576h128v-128h-128zM128 192h128v-128h-128zM320 192h128v-128h-128zM512 192h128v-128h-128zM320 384h128v-128h-128zM512 384h128v-128h-128zM704 384h128v-128h-128zM128 384h128v-128h-128zM832 960v-64h-128v64h-448v-64h-128v64h-128v-1024h960v1024h-128zM896 0h-832v704h832v-704z" />
<glyph unicode="&#xe958;" glyph-name="mobile" d="M736 960h-448c-52.8 0-96-43.2-96-96v-832c0-52.8 43.2-96 96-96h448c52.8 0 96 43.2 96 96v832c0 52.8-43.2 96-96 96zM384 912h256v-32h-256v32zM512 0c-35.346 0-64 28.654-64 64s28.654 64 64 64 64-28.654 64-64-28.654-64-64-64zM768 192h-512v640h512v-640z" />
<glyph unicode="&#xe972;" glyph-name="users" horiz-adv-x="1152" d="M768 189.388v52.78c70.498 39.728 128 138.772 128 237.832 0 159.058 0 288-192 288s-192-128.942-192-288c0-99.060 57.502-198.104 128-237.832v-52.78c-217.102-17.748-384-124.42-384-253.388h896c0 128.968-166.898 235.64-384 253.388zM327.196 164.672c55.31 36.15 124.080 63.636 199.788 80.414-15.054 17.784-28.708 37.622-40.492 59.020-30.414 55.234-46.492 116.058-46.492 175.894 0 86.042 0 167.31 30.6 233.762 29.706 64.504 83.128 104.496 159.222 119.488-16.914 76.48-61.94 126.75-181.822 126.75-192 0-192-128.942-192-288 0-99.060 57.502-198.104 128-237.832v-52.78c-217.102-17.748-384-124.42-384-253.388h279.006c14.518 12.91 30.596 25.172 48.19 36.672z" />
<glyph unicode="&#xe998;" glyph-name="aid-kit" d="M896 704h-192v128c0 35.2-28.8 64-64 64h-256c-35.2 0-64-28.8-64-64v-128h-192c-70.4 0-128-57.6-128-128v-512c0-70.4 57.6-128 128-128h768c70.4 0 128 57.6 128 128v512c0 70.4-57.6 128-128 128zM384 832h256v-128h-256v128zM768 256h-192v-192h-128v192h-192v128h192v192h128v-192h192v-128z" />
<glyph unicode="&#xe9b1;" glyph-name="road" d="M704-64h320l-256 1024h-192l32-256h-192l32 256h-192l-256-1024h320l32 256h320l32-256zM368 320l32 256h224l32-256h-288z" />
<glyph unicode="&#xe9d3;" glyph-name="bookmarks" d="M256 832v-896l320 320 320-320v896zM768 960h-640v-896l64 64v768h576z" />
<glyph unicode="&#xe9d9;" glyph-name="star-full" d="M1024 562.95l-353.78 51.408-158.22 320.582-158.216-320.582-353.784-51.408 256-249.538-60.432-352.352 316.432 166.358 316.432-166.358-60.434 352.352 256.002 249.538z" />
<glyph unicode="&#xea91;" glyph-name="facebook2" d="M928 960h-832c-52.8 0-96-43.2-96-96v-832c0-52.8 43.2-96 96-96h416v448h-128v128h128v64c0 105.8 86.2 192 192 192h128v-128h-128c-35.2 0-64-28.8-64-64v-64h192l-32-128h-160v-448h288c52.8 0 96 43.2 96 96v832c0 52.8-43.2 96-96 96z" />
<glyph unicode="&#xea92;" glyph-name="instagram" d="M512 867.8c136.8 0 153-0.6 206.8-3 50-2.2 77-10.6 95-17.6 23.8-9.2 41-20.4 58.8-38.2 18-18 29-35 38.4-58.8 7-18 15.4-45.2 17.6-95 2.4-54 3-70.2 3-206.8s-0.6-153-3-206.8c-2.2-50-10.6-77-17.6-95-9.2-23.8-20.4-41-38.2-58.8-18-18-35-29-58.8-38.4-18-7-45.2-15.4-95-17.6-54-2.4-70.2-3-206.8-3s-153 0.6-206.8 3c-50 2.2-77 10.6-95 17.6-23.8 9.2-41 20.4-58.8 38.2-18 18-29 35-38.4 58.8-7 18-15.4 45.2-17.6 95-2.4 54-3 70.2-3 206.8s0.6 153 3 206.8c2.2 50 10.6 77 17.6 95 9.2 23.8 20.4 41 38.2 58.8 18 18 35 29 58.8 38.4 18 7 45.2 15.4 95 17.6 53.8 2.4 70 3 206.8 3zM512 960c-139 0-156.4-0.6-211-3-54.4-2.4-91.8-11.2-124.2-23.8-33.8-13.2-62.4-30.6-90.8-59.2-28.6-28.4-46-57-59.2-90.6-12.6-32.6-21.4-69.8-23.8-124.2-2.4-54.8-3-72.2-3-211.2s0.6-156.4 3-211c2.4-54.4 11.2-91.8 23.8-124.2 13.2-33.8 30.6-62.4 59.2-90.8 28.4-28.4 57-46 90.6-59 32.6-12.6 69.8-21.4 124.2-23.8 54.6-2.4 72-3 211-3s156.4 0.6 211 3c54.4 2.4 91.8 11.2 124.2 23.8 33.6 13 62.2 30.6 90.6 59s46 57 59 90.6c12.6 32.6 21.4 69.8 23.8 124.2 2.4 54.6 3 72 3 211s-0.6 156.4-3 211c-2.4 54.4-11.2 91.8-23.8 124.2-12.6 34-30 62.6-58.6 91-28.4 28.4-57 46-90.6 59-32.6 12.6-69.8 21.4-124.2 23.8-54.8 2.6-72.2 3.2-211.2 3.2v0zM512 711c-145.2 0-263-117.8-263-263s117.8-263 263-263 263 117.8 263 263c0 145.2-117.8 263-263 263zM512 277.4c-94.2 0-170.6 76.4-170.6 170.6s76.4 170.6 170.6 170.6c94.2 0 170.6-76.4 170.6-170.6s-76.4-170.6-170.6-170.6zM846.8 721.4c0-33.91-27.49-61.4-61.4-61.4s-61.4 27.49-61.4 61.4c0 33.91 27.49 61.4 61.4 61.4s61.4-27.49 61.4-61.4z" />
<glyph unicode="&#xea93;" glyph-name="whatsapp1" d="M873 811.2c-95.8 96-223.2 148.8-359 148.8-279.6 0-507.2-227.6-507.2-507.4 0-89.4 23.4-176.8 67.8-253.6l-72-263 269 70.6c74.2-40.4 157.6-61.8 242.4-61.8h0.2c0 0 0 0 0 0 279.6 0 507.4 227.6 507.4 507.4 0 135.6-52.8 263-148.6 359zM514.2 30.4v0c-75.8 0-150 20.4-214.8 58.8l-15.4 9.2-159.6-41.8 42.6 155.6-10 16c-42.4 67-64.6 144.6-64.6 224.4 0 232.6 189.2 421.8 422 421.8 112.6 0 218.6-44 298.2-123.6 79.6-79.8 123.4-185.6 123.4-298.4-0.2-232.8-189.4-422-421.8-422zM745.4 346.4c-12.6 6.4-75 37-86.6 41.2s-20 6.4-28.6-6.4c-8.4-12.6-32.8-41.2-40.2-49.8-7.4-8.4-14.8-9.6-27.4-3.2s-53.6 19.8-102 63c-37.6 33.6-63.2 75.2-70.6 87.8s-0.8 19.6 5.6 25.8c5.8 5.6 12.6 14.8 19 22.2s8.4 12.6 12.6 21.2c4.2 8.4 2.2 15.8-1 22.2s-28.6 68.8-39 94.2c-10.2 24.8-20.8 21.4-28.6 21.8-7.4 0.4-15.8 0.4-24.2 0.4s-22.2-3.2-33.8-15.8c-11.6-12.6-44.4-43.4-44.4-105.8s45.4-122.6 51.8-131.2c6.4-8.4 89.4-136.6 216.6-191.4 30.2-13 53.8-20.8 72.2-26.8 30.4-9.6 58-8.2 79.8-5 24.4 3.6 75 30.6 85.6 60.2s10.6 55 7.4 60.2c-3 5.6-11.4 8.8-24.2 15.2z" />
<glyph unicode="&#xea95;" glyph-name="telegram" d="M512 960c-282.8 0-512-229.2-512-512s229.2-512 512-512 512 229.2 512 512-229.2 512-512 512zM763.6 609l-84-395.8c-5.8-28.2-22.8-34.8-46.4-21.8l-128 94.6-61.4-59.8c-7.2-7-12.8-12.8-25.6-12.8-16.6 0-13.8 6.2-19.4 22l-43.6 143.2-126.6 39.4c-27.4 8.4-27.6 27.2 6.2 40.6l493.2 190.4c22.4 10.2 44.2-5.4 35.6-40z" />
<glyph unicode="&#xea96;" glyph-name="twitter" d="M1024 733.6c-37.6-16.8-78.2-28-120.6-33 43.4 26 76.6 67.2 92.4 116.2-40.6-24-85.6-41.6-133.4-51-38.4 40.8-93 66.2-153.4 66.2-116 0-210-94-210-210 0-16.4 1.8-32.4 5.4-47.8-174.6 8.8-329.4 92.4-433 219.6-18-31-28.4-67.2-28.4-105.6 0-72.8 37-137.2 93.4-174.8-34.4 1-66.8 10.6-95.2 26.2 0-0.8 0-1.8 0-2.6 0-101.8 72.4-186.8 168.6-206-17.6-4.8-36.2-7.4-55.4-7.4-13.6 0-26.6 1.4-39.6 3.8 26.8-83.4 104.4-144.2 196.2-146-72-56.4-162.4-90-261-90-17 0-33.6 1-50.2 3 93.2-59.8 203.6-94.4 322.2-94.4 386.4 0 597.8 320.2 597.8 597.8 0 9.2-0.2 18.2-0.6 27.2 41 29.4 76.6 66.4 104.8 108.6z" />
<glyph unicode="&#xea9d;" glyph-name="youtube" d="M1013.8 652.8c0 0-10 70.6-40.8 101.6-39 40.8-82.6 41-102.6 43.4-143.2 10.4-358.2 10.4-358.2 10.4h-0.4c0 0-215 0-358.2-10.4-20-2.4-63.6-2.6-102.6-43.4-30.8-31-40.6-101.6-40.6-101.6s-10.2-82.8-10.2-165.8v-77.6c0-82.8 10.2-165.8 10.2-165.8s10-70.6 40.6-101.6c39-40.8 90.2-39.4 113-43.8 82-7.8 348.2-10.2 348.2-10.2s215.2 0.4 358.4 10.6c20 2.4 63.6 2.6 102.6 43.4 30.8 31 40.8 101.6 40.8 101.6s10.2 82.8 10.2 165.8v77.6c-0.2 82.8-10.4 165.8-10.4 165.8zM406.2 315.2v287.8l276.6-144.4-276.6-143.4z" />
</font>
</defs>
</svg>
